<svg width="83" height="26" viewBox="0 0 83 26" fill="none" xmlns="http://www.w3.org/2000/svg">
<path d="M63.0381 12.873C63.0381 10.8396 63.4447 9.06041 64.2579 7.53538C65.0711 5.98614 66.1832 4.7879 67.5944 3.94066C69.0294 3.09342 70.6199 2.6698 72.3659 2.6698C74.088 2.6698 75.5828 3.04501 76.8504 3.79542C78.118 4.54583 79.0628 5.4899 79.6846 6.62762V2.99659H82.9852V22.8946H79.6846V19.191C79.0389 20.3529 78.0702 21.3212 76.7787 22.0958C75.511 22.8462 74.0282 23.2214 72.33 23.2214C70.584 23.2214 69.0055 22.7857 67.5944 21.9143C66.1832 21.0428 65.0711 19.8204 64.2579 18.2469C63.4447 16.6735 63.0381 14.8822 63.0381 12.873ZM79.6846 12.9093C79.6846 11.4085 79.3857 10.1013 78.7877 8.98779C78.1898 7.87427 77.3766 7.02703 76.3482 6.44607C75.3436 5.8409 74.2315 5.53831 73.0117 5.53831C71.7919 5.53831 70.6797 5.8288 69.6752 6.40976C68.6706 6.99072 67.8694 7.83796 67.2715 8.95148C66.6735 10.065 66.3746 11.3722 66.3746 12.873C66.3746 14.398 66.6735 15.7294 67.2715 16.8671C67.8694 17.9806 68.6706 18.84 69.6752 19.4452C70.6797 20.0261 71.7919 20.3166 73.0117 20.3166C74.2315 20.3166 75.3436 20.0261 76.3482 19.4452C77.3766 18.84 78.1898 17.9806 78.7877 16.8671C79.3857 15.7294 79.6846 14.4101 79.6846 12.9093Z" fill="#4EACF7"/>
<path d="M51.7166 2.6333C54.1135 2.6333 56.0549 3.37249 57.541 4.85087C59.027 6.30502 59.7701 8.41353 59.7701 11.1764V22.9186H56.5343V11.649C56.5343 9.66167 56.0429 8.14694 55.0602 7.1048C54.0775 6.03843 52.7353 5.50524 51.0335 5.50524C49.3078 5.50524 47.9296 6.05054 46.8989 7.14115C45.8922 8.23176 45.3889 9.8192 45.3889 11.9035V22.9186H42.1172V2.99684H45.3889V5.83242C46.0361 4.81452 46.9109 4.02686 48.0135 3.46943C49.14 2.91201 50.3744 2.6333 51.7166 2.6333Z" fill="#4EACF7"/>
<path d="M17.4463 12.8852C17.4463 10.8494 17.8538 9.06804 18.6687 7.54119C19.4836 5.9901 20.5982 4.79043 22.0123 3.94218C23.4504 3.09393 25.0443 2.6698 26.794 2.6698C28.5198 2.6698 30.0178 3.04545 31.2882 3.79676C32.5585 4.54807 33.5053 5.49327 34.1284 6.63235V2.99698H37.4361V22.9188H34.1284V19.2107C33.4813 20.374 32.5106 21.3435 31.2162 22.119C29.9459 22.8703 28.4599 23.246 26.7581 23.246C25.0084 23.246 23.4265 22.8097 22.0123 21.9372C20.5982 21.0647 19.4836 19.8408 18.6687 18.2655C17.8538 16.6902 17.4463 14.8967 17.4463 12.8852ZM34.1284 12.9215C34.1284 11.4189 33.8288 10.1102 33.2296 8.99533C32.6304 7.88049 31.8155 7.03224 30.7848 6.45058C29.7781 5.84469 28.6636 5.54174 27.4412 5.54174C26.2188 5.54174 25.1043 5.83257 24.0976 6.41423C23.0909 6.99588 22.2879 7.84414 21.6887 8.95898C21.0895 10.0738 20.7899 11.3826 20.7899 12.8852C20.7899 14.412 21.0895 15.745 21.6887 16.8841C22.2879 17.9989 23.0909 18.8593 24.0976 19.4652C25.1043 20.0468 26.2188 20.3377 27.4412 20.3377C28.6636 20.3377 29.7781 20.0468 30.7848 19.4652C31.8155 18.8593 32.6304 17.9989 33.2296 16.8841C33.8288 15.745 34.1284 14.4241 34.1284 12.9215Z" fill="#4EACF7"/>
<path d="M3.8281 3.03547L0.0141459 3.02376L12.9434 22.9636L17.0551 22.9763L3.8281 3.03547Z" fill="#4EACF7"/>
<path d="M13.219 3.03504L17.0451 3.03634L4.12464 22.9623L-0.000246794 22.9609L13.219 3.03504Z" fill="#4EACF7"/>
</svg>
