<svg width="110" height="26" viewBox="0 0 110 26" fill="none" xmlns="http://www.w3.org/2000/svg">
<g clip-path="url(#clip0_50_20780)">
<path d="M2.96987 14.4596L0.780512 16.6662C-0.260171 17.715 -0.260171 19.4315 0.780512 20.4808L2.89317 22.61C3.93385 23.6588 5.63702 23.6588 6.67815 22.61L8.86751 20.4035L9.8099 19.4538L3.91226 13.5099L2.96987 14.4596Z" fill="#BAE5F9"/>
<path d="M17.7922 14.4118L19.9815 16.6183C21.0222 17.6672 21.0222 19.3837 19.9815 20.433L17.8689 22.5622C16.8282 23.6111 15.125 23.6111 14.0839 22.5622L11.8945 20.3557L10.9521 19.4059L16.8498 13.462L17.7922 14.4118Z" fill="#BAE5F9"/>
<path d="M19.9361 5.66219L17.7002 3.45134C16.5988 2.36225 14.7964 2.36225 13.695 3.45134L11.3782 5.74227L10.3813 6.72801L9.38395 5.74227L7.06709 3.45134C5.96568 2.36225 4.16333 2.36225 3.06192 3.45134L0.826059 5.66219C-0.275353 6.75128 -0.275353 8.53346 0.826059 9.62255L3.14292 11.9135L4.13979 12.8992L10.3808 19.0704L16.6218 12.8992L17.6187 11.9135L19.9356 9.62255C21.0376 8.53346 21.0376 6.75128 19.9361 5.66219Z" fill="#4EACF7"/>
</g>
<path d="M90.0532 12.873C90.0532 10.8396 90.4598 9.06041 91.273 7.53538C92.0862 5.98614 93.1984 4.7879 94.6095 3.94066C96.0445 3.09342 97.6351 2.6698 99.381 2.6698C101.103 2.6698 102.598 3.04501 103.866 3.79542C105.133 4.54583 106.078 5.4899 106.7 6.62762V2.99659H110V22.8946H106.7V19.191C106.054 20.3529 105.085 21.3212 103.794 22.0958C102.526 22.8462 101.043 23.2214 99.3452 23.2214C97.5992 23.2214 96.0206 22.7857 94.6095 21.9143C93.1984 21.0428 92.0862 19.8204 91.273 18.2469C90.4598 16.6735 90.0532 14.8822 90.0532 12.873ZM106.7 12.9093C106.7 11.4085 106.401 10.1013 105.803 8.98779C105.205 7.87427 104.392 7.02703 103.363 6.44607C102.359 5.8409 101.247 5.53831 100.027 5.53831C98.807 5.53831 97.6948 5.8288 96.6903 6.40976C95.6858 6.99072 94.8845 7.83796 94.2866 8.95148C93.6887 10.065 93.3897 11.3722 93.3897 12.873C93.3897 14.398 93.6887 15.7294 94.2866 16.8671C94.8845 17.9806 95.6858 18.84 96.6903 19.4452C97.6948 20.0261 98.807 20.3166 100.027 20.3166C101.247 20.3166 102.359 20.0261 103.363 19.4452C104.392 18.84 105.205 17.9806 105.803 16.8671C106.401 15.7294 106.7 14.4101 106.7 12.9093Z" fill="#4EACF7"/>
<path d="M78.7313 2.6333C81.1281 2.6333 83.0696 3.37249 84.5556 4.85087C86.0417 6.30502 86.7847 8.41353 86.7847 11.1764V22.9186H83.5489V11.649C83.5489 9.66167 83.0576 8.14694 82.0749 7.1048C81.0922 6.03843 79.7499 5.50524 78.0482 5.50524C76.3224 5.50524 74.9442 6.05054 73.9136 7.14115C72.9069 8.23176 72.4036 9.8192 72.4036 11.9035V22.9186H69.1318V2.99684H72.4036V5.83242C73.0507 4.81452 73.9256 4.02686 75.0281 3.46943C76.1546 2.91201 77.389 2.6333 78.7313 2.6333Z" fill="#4EACF7"/>
<path d="M44.4619 12.8852C44.4619 10.8494 44.8694 9.06804 45.6843 7.54119C46.4992 5.9901 47.6138 4.79043 49.0279 3.94218C50.466 3.09393 52.06 2.6698 53.8097 2.6698C55.5354 2.6698 57.0334 3.04545 58.3038 3.79676C59.5741 4.54807 60.5209 5.49327 61.1441 6.63235V2.99698H64.4517V22.9188H61.1441V19.2107C60.4969 20.374 59.5262 21.3435 58.2319 22.119C56.9615 22.8703 55.4755 23.246 53.7737 23.246C52.024 23.246 50.4421 22.8097 49.0279 21.9372C47.6138 21.0647 46.4992 19.8408 45.6843 18.2655C44.8694 16.6902 44.4619 14.8967 44.4619 12.8852ZM61.1441 12.9215C61.1441 11.4189 60.8445 10.1102 60.2452 8.99533C59.646 7.88049 58.8311 7.03224 57.8004 6.45058C56.7938 5.84469 55.6792 5.54174 54.4568 5.54174C53.2344 5.54174 52.1199 5.83257 51.1132 6.41423C50.1065 6.99588 49.3036 7.84414 48.7044 8.95898C48.1051 10.0738 47.8055 11.3826 47.8055 12.8852C47.8055 14.412 48.1051 15.745 48.7044 16.8841C49.3036 17.9989 50.1065 18.8593 51.1132 19.4652C52.1199 20.0468 53.2344 20.3377 54.4568 20.3377C55.6792 20.3377 56.7938 20.0468 57.8004 19.4652C58.8311 18.8593 59.646 17.9989 60.2452 16.8841C60.8445 15.745 61.1441 14.4241 61.1441 12.9215Z" fill="#4EACF7"/>
<path d="M30.8432 3.03547L27.0293 3.02376L39.9585 22.9636L44.0702 22.9763L30.8432 3.03547Z" fill="#4EACF7"/>
<path d="M40.2346 3.03504L44.0607 3.03634L31.1403 22.9623L27.0154 22.9609L40.2346 3.03504Z" fill="#4EACF7"/>
<defs>
<clipPath id="clip0_50_20780">
<rect width="20.762" height="20.762" fill="white" transform="translate(0 2.63452)"/>
</clipPath>
</defs>
</svg>
