<svg width="68" height="20" viewBox="0 0 68 20" fill="none" xmlns="http://www.w3.org/2000/svg">
<path d="M59.4144 19.1971C58.1743 19.1971 57.0892 18.9824 56.1591 18.5532C55.2529 18.1239 54.5494 17.5277 54.0486 16.7646C53.5478 16.0014 53.2974 15.1071 53.2974 14.0817C53.2974 12.937 53.6074 11.9354 54.2274 11.0768C54.8713 10.2183 55.8133 9.56248 57.0534 9.10937C58.2935 8.63241 59.7721 8.39393 61.4891 8.39393H65.3883V7.71426C65.3883 6.28339 64.9829 5.16253 64.172 4.3517C63.3612 3.51702 62.2284 3.09969 60.7737 3.09969C59.9629 3.09969 59.2117 3.26662 58.5201 3.60049C57.8285 3.93436 57.268 4.3994 56.8388 4.9956C56.4095 5.5918 56.171 6.24762 56.1233 6.96306H53.512C53.5597 5.81835 53.9055 4.79289 54.5494 3.88667C55.2171 2.98044 56.0995 2.26501 57.1965 1.74035C58.2935 1.2157 59.4978 0.953369 60.8095 0.953369C62.288 0.953369 63.5639 1.23954 64.6371 1.81189C65.7341 2.3604 66.5687 3.15931 67.1411 4.20862C67.7135 5.25793 67.9996 6.48609 67.9996 7.89312V18.7678H65.4598V15.8703C64.8398 16.8719 63.9932 17.6827 62.92 18.3028C61.8469 18.899 60.6783 19.1971 59.4144 19.1971ZM59.5932 17.1223C60.6902 17.1223 61.6799 16.86 62.5623 16.3353C63.4685 15.7868 64.172 15.0714 64.6728 14.189C65.1975 13.2828 65.4598 12.2931 65.4598 11.2199V10.3614H61.5607C59.7244 10.3614 58.3054 10.6833 57.3038 11.3272C56.3261 11.9473 55.8372 12.8535 55.8372 14.0459C55.8372 14.9521 56.171 15.6914 56.8388 16.2638C57.5065 16.8361 58.4247 17.1223 59.5932 17.1223Z" fill="#4EACF7"/>
<path d="M34.6177 1.232H37.1575V5.84658L35.6193 8.60102C35.6193 7.17014 35.9293 5.8585 36.5494 4.6661C37.1933 3.47371 38.0518 2.53171 39.1249 1.84012C40.2219 1.14853 41.462 0.802734 42.8452 0.802734C44.2046 0.802734 45.4089 1.11276 46.4582 1.7328C47.5075 2.35285 48.3183 3.24715 48.8907 4.4157C49.4869 5.58425 49.785 6.95551 49.785 8.52947V18.6172H47.1736V8.60102C47.1736 7.0032 46.7324 5.70349 45.8501 4.70187C44.9915 3.70026 43.8111 3.19945 42.3086 3.19945C40.8062 3.19945 39.5781 3.70026 38.6241 4.70187C37.6702 5.70349 37.1933 7.0509 37.1933 8.7441V18.6172H34.6177V1.232Z" fill="#4EACF7"/>
<path d="M22.5735 19.1971C21.3335 19.1971 20.2484 18.9824 19.3183 18.5532C18.4121 18.1239 17.7086 17.5277 17.2078 16.7646C16.7069 16.0014 16.4565 15.1071 16.4565 14.0817C16.4565 12.937 16.7666 11.9354 17.3866 11.0768C18.0305 10.2183 18.9725 9.56248 20.2126 9.10937C21.4527 8.63241 22.9313 8.39393 24.6483 8.39393H28.5475V7.71426C28.5475 6.28339 28.142 5.16253 27.3312 4.3517C26.5204 3.51702 25.3876 3.09969 23.9329 3.09969C23.122 3.09969 22.3708 3.26662 21.6792 3.60049C20.9877 3.93436 20.4272 4.3994 19.998 4.9956C19.5687 5.5918 19.3302 6.24762 19.2825 6.96306H16.6712C16.7189 5.81835 17.0647 4.79289 17.7086 3.88667C18.3763 2.98044 19.2587 2.26501 20.3557 1.74035C21.4527 1.2157 22.657 0.953369 23.9686 0.953369C25.4472 0.953369 26.7231 1.23954 27.7962 1.81189C28.8933 2.3604 29.7279 3.15931 30.3003 4.20862C30.8726 5.25793 31.1588 6.48609 31.1588 7.89312V18.7678H28.619V15.8703C27.999 16.8719 27.1524 17.6827 26.0792 18.3028C25.006 18.899 23.8375 19.1971 22.5735 19.1971ZM22.7524 17.1223C23.8494 17.1223 24.8391 16.86 25.7215 16.3353C26.6277 15.7868 27.3312 15.0714 27.832 14.189C28.3567 13.2828 28.619 12.2931 28.619 11.2199V10.3614H24.7199C22.8836 10.3614 21.4646 10.6833 20.463 11.3272C19.4852 11.9473 18.9964 12.8535 18.9964 14.0459C18.9964 14.9521 19.3302 15.6914 19.998 16.2638C20.6657 16.8361 21.5839 17.1223 22.7524 17.1223Z" fill="#4EACF7"/>
<path d="M7.51235 11.1841L6.51074 10.3971L0.28642 1.38257H3.29126L8.0847 8.46541L9.15786 9.25239L15.5253 18.7677H12.5204L7.51235 11.1841ZM6.43919 9.25239L7.61967 8.46541L12.2342 1.38257H15.1318L9.2294 10.3971L8.01316 11.1841L2.89777 18.7677H0.000244141L6.43919 9.25239Z" fill="#4EACF7"/>
</svg>
