<svg id="caracas_animated" xmlns="http://www.w3.org/2000/svg" xmlns:xlink="http://www.w3.org/1999/xlink" viewBox="0 0 1184 228" shape-rendering="geometricPrecision" text-rendering="geometricPrecision" project-id="de09c2a5f20c43b1bb531a57c5a74911" export-id="b703f1fb6da747adacd7c74dd461d650" cached="false"><g id="caracas_animated-s-g1" mask="url(#caracas_animated-u-mask0_189_6628)"><g id="caracas_animated-s-g2"><path id="caracas_animated-s-path1" d="M150.573,65.6091l5.551-.1132l5.211,1.3593l4.531,1.9824v4.5879l1.303,6.6269l18.804,10.5917l64.287,1.1894l5.777,10.3655-.906.34-6.91,9.402-2.662,2.549-4.645,2.322-1.246.226-1.246-.339-4.474-2.776-1.36-.453-1.529-.113-1.586.113-1.359.453-1.133.68-.963.849-.906.907-1.926,3.228-2.096,5.324-1.133,4.362-1.189,36.023l8.496,25.884-2.152,3.059-3.569,3.908-9.515,12.517-.68,1.19-.17,2.719l2.606,19.824-.68,4.871.17,1.642.51,1.473l1.472,1.699l1.133,1.926.906,3.625.793,6.004l1.643,3.058l5.211,4.475-9.289,5.381-21.24,16.085-4.362,2.323-3.058,1.076-1.812.17-1.983-.17-2.775-.963-.623-1.133.396-.963.906-.849l1.133-.737.906-.736.68-.793-.17-.906-.849-.736-1.303-.51-5.721-1.699-2.605-1.02-1.133-.793-.906-.85-.85-.962-.736-1.133-.567-1.246-.396-1.36-.283-1.472.056-1.643.34-1.472l1.36-3.852.113-1.133v-.566l-.17-.51-.453-.793-.906-.68-1.303-.509-8.44-.51-1.812.283-1.982.906-2.436,2.776-1.133,1.925-1.472,3.116-1.36,1.132-2.039,1.19-3.002.736-2.152.397-1.869-.057-1.303-.283-1.756.113-4.984,1.02-4.248-1.473h-1.529l-11.498.906-2.889.737-1.359,1.246-1.133,1.982-1.076,4.531-.34,2.719-.566,2.605-.963,2.096-4.079,4.701-1.982,4.192-.453,1.812-.5097.906-.7931,1.076-1.0762.737-6.7967.566-24.2986-1.642l3.9649-8.496l2.6054-3.795l7.3066-7.25.1132-1.133-.5664-.963-1.7559-1.869-4.9276-9.799-1.7559-4.701-5.3241-2.549-19.5409,9.686-4.7578,4.078-.2831,1.529-.1134,2.662.7363,6.854-.1132,2.039-.6231,2.379-1.5859,3.681-1.3593,1.756-1.586.963-1.8125-.227-1.2461-.679-.7361-.737-.34-.793-.623-2.548-.6231-1.19-.7929-1.076-3.7383-3.568-1.5859-2.039-.6796-1.133-.5098-1.303-.2833-1.473-.1699-1.642l1.0197-11.611-.1134-1.473-.3966-1.586-.6229-1.359-1.3028-2.153-6.4004-8.156-8.38259-8.043-1.4727-2.152-.62296-1.189-4.361395-6.174-1.869045-3.965-.39652-1.246-.39653-3.342.0567-1.246.11322-.85.39652-1.189.566435-1.076l1.585915-1.983l2.03896-1.472l5.15427,3.228l4.70122,7.08l1.7558,1.36l2.2089.396l1.1896-.453.7928-.68l1.1894-1.586l2.6621-2.775l1.6426-2.039l1.2461-2.379.5665-1.359.7928-2.889.4533-3.228.8495-1.53l1.3593-1.359l10.9317-6.967l2.5487-.793l3.0019-.113l1.8692.17l1.5293.68l1.1328-.567.6797-.679l1.5859-2.209l3.6816-1.7.4532-3.285-.0567-9.006-3.9649-13.14-.7363-3.512-.3398-2.662l1.8692-13.197-.3966-1.642-.6796-.793-1.1329.283-3.5116,1.812-1.586.114-1.8125-.397-2.0956-1.416-.7929-1.586-.1699-1.982.5097-6.231.9063-1.982l3.6249-1.246l1.1328-1.133.623-1.473.6796-4.418l3.1154-10.138l1.5292-2.832l1.5292-1.643l2.6056-.963l1.2461-.283l1.1893.057.9063.113l5.4941,1.529l3.1151-1.019l4.1915-2.152l12.3475-8.78l2.2656-2.2086l1.1329-2.4922.453-1.4727.5098-6.7401-.2267-3.4551l15.4061-4.7011l4.531-2.4355l1.53-2.1523l3.002-5.0976l1.359-1.6993l2.662-2.5488l1.926-.8496l1.642-.0566l2.549,1.3594l1.756.3965l2.945-.17l3.002-1.4726l2.209-.6797l1.869-.4531l10.592.1699l3.398.9062Z" clip-rule="evenodd" fill="#d9edfd" fill-rule="evenodd" stroke="#f9f9f9" stroke-width="0.78" stroke-linecap="round" stroke-linejoin="round"/><path id="caracas_animated-s-path2" d="M763.298,93.0803l.453,1.5293.623,6.3434-.056.68.17.566.056.17v.057l.114.113.056.113.057.17v.397l-1.529,11.838.169.453.057.283.227.623.056.17.057.227-.566.679-2.946,1.869-7.646-3.908-3.455.34-18.182,1.473-.736.396-.34-.057-.453-.226-1.869-1.869h-.567l-.849.17-1.813.736-1.302.736-.85-.113-4.531-1.416-1.246-.566-.68-.397-.17-.226-.17-.17-.51-.34-1.302-.51-1.303-.283-.453-.113-.34-.17-.227-.17-.453-.113-1.982-.17-1.133-.34-13.197-.453-.396-.17-.907.283-1.132.736-2.493,2.096-1.925,1.246-1.756-.566-25.432.17-2.662-1.247-1.302-.396-.397-.057-19.201.34-11.158,1.756-1.076-.283-3.172-1.473-1.02-.623-1.076.057L616.657,115l-2.775-.227-1.133-.396-.397-.227-1.019-.509-3.115-.963-1.643-.283-.567-.057-.283.057-.283.056-1.303.397-.736.113-1.246.113-4.135,1.246-1.019.114-.68-.057-.17-.283-.283-.283-.51-.454-.34-.169-2.039-.397-.453-.17-1.359-.68-.397-.113-.736-.113-.68-.057-.396-.113-1.756-.68-1.416-1.019-1.133-.623-.736-.51-.85-.793-.283-.227-.226-.113-.34-.056h-.34l-.68.509-.849.963-1.53,2.322-.566,1.133-.283.793.113.283l1.076,1.02.227.283.113.34.057.34-.057.226-.397.34-.736.397-3.851,1.302-1.869,1.02-.284.113h-.283l-.34.057-.396.113-.906.736-.737.963-.793,1.813v1.019l.057.68.736.963.17.34.057.34-.057.283-.68,2.435-.113,1.246v.284l.17.679.057.283v.623l.056.34.227.51.057.34.056.226-.51.284-1.019.283-4.814.51-.907.34-.226.792-.453.51-.397.453-1.812,1.133-.68.34-.68.057-1.302-.34-.737-.34-.679-.17-.793.113h-1.077l-.509.057-2.662,1.303-6.911,4.814-17.501,6.4-3.682-2.605-1.189-1.076-.567-.113-.849.056-3.455.51h-1.416l-.85.17h-.227l-.849-.057-.567.113-.226.057-.623.34-.227.057-.396-.057-1.869-.51h-.68l-.453.057-1.756,1.246-.906.396-.453.34-.68.51-.566.34-.34.17-2.549.849-1.473.227-.339.113-.624.283-.283.17-.226.227-.114.283-.396.963-.17.283-.227.227-.226.226-.283.227-1.53,1.529-.566-1.076-3.908-12.404-.453-.567-3.059-2.662-1.189-3.115-3.285-6.004-.454-1.246-.283-.453-.226-.283h-.114l-.17-.057-.169-.113-.114-.227-.226-.509-.397-.567-.113-.17-.17-.113-.453-.283-.17-.227-.453-.396-.17-.057h-.057-.113l-.113-.057-.114-.113-.113-.226-.17-.51-.34-.34.454-1.246l2.945-5.098.113-1.076l17.162-1.812l21.693.849l19.145-2.492l14.953-7.873l10.195-2.096l10.308-3.851l5.834-.9063l33.135.5098l28.603-2.5488l61.511-3.6816l29.736.5097l2.945.793l3.059,1.8691l14.273,2.6054l4.305-.0566l3.228-2.4355l2.096-2.3789Z" clip-rule="evenodd" fill="#d9edfd" fill-rule="evenodd" stroke="#f9f9f9" stroke-width="0.78" stroke-linecap="round" stroke-linejoin="round"/><path id="caracas_animated-s-path3" d="M995.692,222.39l-.227.906-3.171,11.895-2.719,4.191-1.246.736-1.303.454-1.303.679-1.529.963-1.303,1.19-3.341,2.322-6.231,1.982-2.662,1.813-6.74,6.797-2.152,1.585-1.813.963-3.625.793-7.25,2.266-2.435,1.133-2.266,1.586-3.002,3.285-1.303.396-1.076-.453-1.019-.906-1.246-.85-2.096-.453-1.473.34-1.302.623-7.08,6.287-12.801,3.738-5.381.68-7.023-.51-1.643-.226-1.246-.567-1.133-.736-2.039-.963-2.775-.963-6.061-1.189-3.115-.17-2.322.226-2.549,1.02-1.133.68-1.019.793-6.117,2.265-12.461,2.379-3.002.057-19.598-6.457-4.191-.85h-2.266l-1.869.283-1.642.737-5.268,1.416-1.982-.17-1.416-.567-.623-.793-.623-1.586-2.832-2.039-1.133.114-2.152.679-7.703,3.285-2.379.567-1.756.113-4.928-2.152-6.4-4.192-2.889-1.416-6.06-.396-5.325.227-2.605-.397-1.982-.623-7.42-3.908-.623-.51-.283-.283-3.512-1.869-5.381-2.266-3.115-.793-2.322-.226-1.586.226-5.155,1.643-.679.34-.793.623-.793.736-3.115,4.305-3.002,2.095-9.402,1.586-10.932,2.039-22.203.51-13.934-1.812-5.21-2.323-2.606-1.756-1.869-.566-1.699-.113-2.266.226-7.873-.226-2.095-.85-1.246-.849-.51-.85-2.662-2.266-4.815-.962-7.873-.68-3.568.793-7.816,3.172-3.512.17-.793-.284-.906-.566-1.19-.793-5.267-1.359-3.682.339-1.642-.849-1.077-1.473-.906-1.926-2.662-2.378-2.322-3.342-.453-1.076-1.53-2.209-3.794-3.172-1.473-.567-2.379-.509h-1.416l-1.076.226-1.133.397-1.133.623-2.039,1.586-2.322,1.472-3.512,1.7-12.234-7.93-5.834-4.815-2.209-2.775-3.568-8.949-.397-2.492.057-2.039.34-1.416l1.189-2.606l2.209-3.398.567-1.359l2.605-15.18-.057-2.152-.226-1.19-1.529-1.586-3.456-2.548-2.208-1.133-8.157-3.115-1.472-.85-1.529-1.246-1.983-2.322-.736-1.926-.17-1.813.226-1.586.397-1.472.51-1.36l2.039-1.869.906-1.132-.51-.793-1.926-1.813-1.812-1.303-7.76-12.517l17.502-6.4.397,2.492.169.226.907.453.849.17l6.344,1.869l11.951,5.325l6.004,1.755l5.72.397l3.229-.113l2.549-.453l6.57-2.549l4.928-2.889l1.982-.68l3.229-.849l4.304-.113l7.817,1.472l2.548-13.084l1.756-4.248l3.172-2.888l3.285-3.569.51-1.586.227-.793-2.04-3.398L616.656,115l2.776-1.529l1.076-.056l1.019.623l3.172,1.472l1.076.283l11.158-1.755l19.202-.34.396.056l1.303.397l2.662,1.246l25.431-.17l1.756.566l1.926-1.246l2.492-2.095l1.133-.737.906-.283.397.17l13.197.453l1.132.34l1.983.17.453.113.227.17.339.17.454.113l1.302.284l1.303.509.51.34.17.17.17.227.679.396l1.246.567l4.532,1.416.849.113l1.303-.737l1.812-.736.85-.17h.566l1.87,1.869.453.227.339.057.737-.397l18.181-1.473l3.455-.339l7.647,3.908l2.945-1.869.566-.68-.056-.227-.057-.17-.226-.623-.057-.283-.17-.453l1.529-11.838v-.396l-.056-.17-.057-.113-.113-.114v-.056l-.057-.17-.17-.567.057-.679-.623-6.3439-.453-1.5293l1.076-1.2461l3.738-3.3418l5.041-1.4726l6.344.9628l15.972,8.3261l17.275,4.0778l5.325,4.701l12.121,1.416l3.002.68-1.926,3.738-5.834,3.625-6.854,2.153-5.041-.567.227,3.059-.396,6.457l1.076,2.435l8.043,8.326l19.767,15.463l1.982,2.549l8.723,5.381l4.758,7.25l18.521,11.158-3.738.113-3.625-.68-3.059-1.302-2.095-1.756-2.039,1.642-1.7,1.983l5.551,7.306l6.797-1.586l6.74,4.022l11.441,10.252l6.627,2.322l7.137,1.133l15.009.34-7.759-5.098-26.168-11.215-5.551-7.476l75.388,33.021l31.775,9.572l8.723,1.586Z" clip-rule="evenodd" fill="#d9edfd" fill-rule="evenodd" stroke="#f9f9f9" stroke-width="0.78" stroke-linecap="round" stroke-linejoin="round"/><path id="caracas_animated-s-path4" d="M-70.3231,75.5783h2.6056l11.781-3.0586l3.0586-1.1327l1.586-.2833l37.2691,3.1719l1.4727.3965l1.3028.5097l1.52919.4532l1.81253.1132l4.64435-1.0195l2.15234-.0566L27.1547,79.2599l10.988.2266l6.7968-1.5293L51.17,75.465l1.5859-.1699l2.8887.6797l9.4021.0566l6.004-1.1328l9.0058.1133l3.7948,1.5859l1.3028,1.2461l1.416,1.0196l3.6248,6.2304.2267,3.455-.5098,6.7402-.4531,1.4726-1.1328,2.4922-2.2656,2.2091-12.3475,8.779-4.1915,2.152-3.1151,1.02-5.4941-1.529-.9062-.114-1.1895-.056-1.246.283-2.6056.963-1.5292,1.642-1.5293,2.832-3.1153,10.139-.6796,4.418-.623,1.473-1.1328,1.132-3.6249,1.246-.9063,1.983-.5097,6.23.1699,1.983.7929,1.586l2.0956,1.416l1.8125.396l1.5859-.113l3.5117-1.813l1.1329-.283.6796.793.3966,1.643-1.8693,13.197.3399,2.662.7363,3.512l3.9649,13.14.0567,9.006-.4532,3.285-3.6816,1.699-1.5859,2.209-.6797.68-1.1328.566-1.5292-.68-1.8693-.169-3.0019.113-2.5487.793-10.9317,6.967-1.3593,1.359-.8495,1.529-.4533,3.229-.7928,2.888-.5665,1.36-1.2461,2.379-1.6426,2.039-2.6621,2.775-1.1894,1.586-.7928.68-1.1896.453-2.2089-.397-1.7558-1.359-4.70122-7.08-5.15427-3.229-2.038966,1.473-1.585907,1.982-.566437,1.077-.39655,1.189-.11319.85-.0567,1.246.39652,3.341.39651,1.246l1.869052,3.965l4.361388,6.174.62299,1.19L7.104,240.741l8.3826,8.043l6.4004,8.156l1.3028,2.152.6229,1.36.3966,1.586.1133,1.472-1.0196,11.611.1699,1.643.2833,1.473.5098,1.302.6796,1.133l1.5859,2.039l3.7383,3.569.7929,1.076.6231,1.189.6229,2.549.34.793.7362.736l1.2461.68l1.8125.226l1.5859-.962l1.3594-1.756l1.5859-3.682.6231-2.379.1132-2.039-.7363-6.853.1134-2.662.2831-1.53l4.7577-4.078l19.541-9.685l5.3241,2.549l1.7559,4.701l4.9276,9.799l1.7558,1.869.5665.963-.1132,1.132-7.3066,7.25-2.6055,3.795-3.9648,8.496-.9063,14.047v3.002l.1134,2.605v.284l-.1134.056-8.496,8.609-1.1327.68-6.6837,1.983-1.3026,1.246-.7363,1.529-.2833,1.529-.623,1.19-.793,1.019-1.076.793-1.2461.566-15.2929,4.475-12.8007,1.699-9.96858-.679-2.8887-.737-2.039128-1.189-2.435482-1.869-4.36124-4.362-1.81253-2.435-.96277-2.209v-1.643l.62296-3.115.96295-2.662.28314-1.416-.33984-3.002-1.35929-5.834-.73639-9.742-.6796-.963h-1.6426l-1.5859,1.19-1.6993,2.152-5.2109,10.308-6.8534,6.457L-34.13,341.22l-1.4727,4.928-3.2285,5.268-6.5136,4.588-7.1367,2.662-13.6501.623-13.0273,1.359-7.7597.623-7.8164.68-3.2285,3.285-2.6055,3.285-2.889,6.684.454,3.341.509,3.229l1.246,4.021.284,1.473.056,3.228-.283,1.303-3.512,9.062-.226,2.379.226,1.87.567,1.246.34,1.416.113,1.642-.17,1.813-.283,1.586-4.135,3.115-16.539,5.041-3.738-2.662-.623-3.002v-1.586l-.397-1.36-.793-.962-1.359-.17-1.586.736-2.549,1.586-3.738,1.642-23.052,1.36-1.926-.17-2.209-.567-1.303-1.699-.283-1.529.283-1.529l3.455-7.59l2.266-3.172l1.756-1.926l4.701-6.343l9.119-9.063.566-1.246.397-1.303v-1.416l-.397-1.302-1.076-.907-1.869-.283-2.775.17-1.926-.113-1.699-.34-2.832-.793-1.53-.113-2.322.679-8.439,3.286-2.606.226-1.812-.113-1.303-1.133-.736-.793-1.869-1.699-2.153-1.529-1.133-.567-1.982.623-2.435,1.869-16.596,17.785-.736,1.586-.85,2.492-1.586,8.1-1.189,3.455-2.492,2.209-6.684-15.293-.963-1.246-1.359-1.076-8.496-3.342-2.436-2.095-2.095-6.118-4.418-15.349-.17-1.643v-1.699l.34-1.869.679-1.699l1.756-1.813l1.359-1.132l8.95-6.004l1.132-1.076l1.473-1.133l1.416-.51l1.416.057l4.248,1.076l1.473-.114l1.246-.453l1.189-.679l4.022-3.399.793-1.076.339-1.359-.736-2.266-.736-1.529-.793-1.303-3.229-3.172-9.968-7.42-1.303-2.378-1.416-2.096-.906-.963-1.02-.793-1.076-.736-1.926-.567-2.435-.453-9.629-.396-1.813-.34-1.642-.793-1.813-1.756-6.4-9.062-.793-.793-.623-.793-3.115-3.002-1.02-.623-1.132-.227-1.416.85-1.077.963-.906,1.132-4.361,2.323-2.606-1.983-1.982-3.285-3.908-7.25-9.063-1.982-3.908-1.303-1.302-2.322-2.606-6.287-1.926-1.983-3.625-.283-9.742,1.643-2.549,1.303-4.587,2.662-3.909,2.605h-2.605l-5.834-3.625-5.494-3.965-4.871-.963-3.568-3.002-4.588-8.892-3.569-4.305v-2.605l-.34-5.268-.962-3.002-3.569-1.642h-3.228l-4.248,1.303-3.908,2.322-3.909,5.267-6.117,12.574.227,13.594-5.211-.85-3.908-2.208-13.027-8.78-7.364-3.115-8.666-6.117-8.212-9.232-4.305-6.627-.906-7.024l2.605-7.929l6.061-5.721l25.997-15.859l3.909-3.512l1.699-3.058l1.359-3.569l1.246-5.267l2.606-6.174l2.209-4.418l3.002-4.814l1.699-2.096l1.756-2.322l3.455-3.512l6.513-3.965l5.664-2.605l5.608-1.36l5.211-.849l3.908-.906l1.303-1.756l1.246-3.059l2.209-3.965l1.302-3.115l3.002-7.023l2.209-3.569l5.608-4.361l5.21-2.209l3.909-.906l5.607-2.209l3.059-3.059l2.152-3.964l1.869-2.606l3.625-2.265l7.193-3.229l1.869-1.699l2.266-2.945l1.926-1.133l4.304-.85l6.118-.113l9.402,2.039l4.248-3.908.34-1.416l1.246-1.869l1.812-1.756l4.475-2.379l3.795-2.7189l3.058-6.1737l1.53-2.0957.906-.9629.963-.8496l1.132-.7363l1.87-.4531l2.492-.3399l7.306.3399l12.688,2.832l2.039-.1133l2.435-.5098l4.022-2.039l3.568-2.4922l8.156-3.9648l4.645-3.5683l1.925-.5098l3.569.1699l2.152.3399l1.869.4531l1.586.1133l1.699-.2832l2.436-1.1895l2.039-.5663l3.002.2265l1.982.2832l2.323-.1699l2.322-.8496l3.625-2.4922l3.228-2.832.85-.9628.906-.9063l1.246-.793l1.36-.623l2.039-.1133l1.189.2832l1.416,2.4355-2.039,1.6993-.963.5663-1.019.9063-.397.9062.453.9062l1.246.5098l1.643.2266l2.379-.1699l2.945-.5098l11.158-3.9081l9.912-4.7012l11.838-8.2128l2.379-.0566l3.341.5664l13.5375,3.9647l13.9335,1.586l4.3047,2.4921.7928,1.0762.963,1.416.793,2.7754.2832,1.5292.3965,1.416.623,1.1895l1.9257.5664Z" clip-rule="evenodd" fill="#d9edfd" fill-rule="evenodd" stroke="#f9f9f9" stroke-width="0.78" stroke-linecap="round" stroke-linejoin="round"/><path id="caracas_animated-s-path5" d="M250.255,91.8341l-64.287-1.1894L167.164,80.053l-1.303-6.6269v-4.5879l-4.531-1.9824-5.211-1.3593-5.551.1132-3.399-.9062-10.591-.1699-1.869.4531-2.209.6797-3.002,1.4727-2.945.1699-1.756-.3965-2.549-1.3594-1.643.0566-1.925.8497-2.663,2.5487-1.359,1.6993-3.002,5.0976-1.529,2.1523-4.531,2.4355L90.1896,85.094l-3.6249-6.2304-1.416-1.0196-1.3028-1.246-3.7948-1.586-9.0058-.1133-6.004,1.1329-9.4021-.0567-2.8887-.6797-1.5859.1699-6.2305,2.4922-6.7968,1.5293L27.1492,79.26L-1.11426,74.6721l-2.15234.0567-4.64441,1.0195-1.8125-.1132-1.52919-.4532-1.3028-.5098-1.4727-.3964-37.2691-3.1718-1.5859.2832-3.0587,1.1327-11.781,3.0586h-2.6056l-1.9257-.5664-.623-1.1895-.3965-1.4159-.2832-1.5293-.793-2.7754-.963-1.416-.7928-1.0762-4.3047-2.4921-13.9334-1.586-13.5372-3.9647-3.342-.5664-2.378.0566-11.838,8.2128-9.912,4.7012-11.158,3.9081-2.946.5098-2.379.1699-1.642-.2266-1.246-.5098-.453-.9062.396-.9062l1.02-.9062.963-.5665l2.039-1.6992-1.416-2.4355-1.19-.2832-2.039.1133-1.359.623-1.246.793-.907.9063-.849.9628-3.229,2.832-3.625,2.4922-2.322.8496-2.322.1699-1.983-.2832-3.001-.2265-2.04.5663-2.435,1.1895-1.699.2832-1.586-.1133-1.869-.4531-2.153-.3399-3.568-.1699-1.926.5098-4.644,3.5683-8.156,3.9648-3.569,2.4922-4.021,2.0391-2.436.5097-2.039.1133-12.687-2.832-7.307-.3398-2.492.3398-1.869.4531-1.133.7363-.963.8496-.906.9629-1.529,2.0957-3.059,6.1738-3.795,2.7187-4.474,2.379-1.813,1.756-1.246,1.869-.34,1.416-4.248,3.908-9.402-2.039-6.117.113-4.305.85-1.925,1.133-2.266,2.945-1.869,1.699-7.193,3.229-3.625,2.265-1.87,2.606-2.152,3.964-3.058,3.059-5.608,2.209-3.908.906-5.211,2.209-5.607,4.362-2.209,3.568-3.002,7.023-1.303,3.115-2.209,3.965-1.246,3.059-1.303,1.756-3.908.906-5.211.849-5.607,1.36-5.664,2.605-6.514,3.965-3.455,3.512-1.756,2.322-5.607-1.643-3.908-.339-4.871-2.323-4.191-2.945-2.266-3.285-.68-4.305.34-6.627-1.642-7.929-5.211-6.91-3.569-3.342-6.287-1.869-13.65,1.019-9.006,2.379-2.322,1.02-1.303.34-2.322-1.19-3.908-2.719-3.852-.226-2.662.17-1.416-.68-2.265-2.152-2.776-3.455-10.025-9.969-1.926-2.379-1.189-5.947-.227-1.643-1.246-4.701-1.926-4.191-1.925-2.606-2.323-2.5484-4.134-3.6815-1.643-2.2656-.793-1.9258.623-2.7754.057-1.5859-.34-1.3594-1.303-4.0214-.453-2.209-.17-2.5488.227-3.2285l2.435-9.8553-.906-3.9082-2.096-2.7188-11.781-10.3651-2.322-1.416-4.928-4.5312-10.252-11.498-4.078-2.5487-5.097-4.1914-2.776-3.1152-2.662-4.8145-6.513-16.76542-.227-.56638l27.754-11.3847l11.668-6.91l2.378-2.2091l15.69-5.8905l50.409-28.2634l40.951-10.8749l7.194-2.8887l5.664,2.4356l9.005-.1133l30.303-3.7383l4.644-2.832l4.192-6.7401-2.549,1.0195-2.096,1.5859-1.586,2.1523-.906,2.5488-.85-6.5702l6.344-2.3222l13.707,1.9823l8.666-2.4921l20.051-9.5722l9.515-6.4568l5.041.17l9.855,1.3025l13.367-6.6265l5.495-6.684l3.625-7.363.226-4.871-.453-1.926-1.869-1.756-2.945-.51l2.605-1.869l3.455.34l3.795,1.756l2.039,3.285l2.549,2.945l2.549,2.436l2.945-1.19l1.359-2.605l1.076-3.625l2.379.113l2.946,1.643l2.548.963l1.983,1.699h1.246l.51-2.549v-2.549l-.34-1.755-1.133-1.19-2.266-.793.34-1.246.283-.793l1.36-1.756-3.852-1.359.567-3.568-11.272-3.795-6.004-.453-.906-.737l1.246-1.529l1.869.057l3.965-.114-2.209-2.095-3.002-1.133-3.511-1.076-3.172-1.813-5.211-3.851l10.138,2.492l7.194,4.078l7.08,3.738l4.644,2.322l2.209.623l4.645,1.303l4.361-.396l4.531,1.246l3.852,2.095l4.927-2.039l2.832-2.435l5.268,1.756l1.359,4.248l2.096,1.076l3.568-.68l1.7,4.588l4.191,2.492l5.267,2.832l3.116,6.004l7.986,2.832l4.984-3.002l1.529-3.795l7.647-4.588l3.342-3.341.906-6.061-5.494-9.176l1.019-5.154-2.209-3.058-4.191-12.631-1.586-7.873-6.457-12.971h-1.642l-.737,4.928-2.095-.51-2.436-2.775-1.869-1.643-3.455.907-2.152,1.869-1.416,1.869-1.02.849-12.404,3.965-5.891.453l1.303-4.418-10.535,4.815-3.002.679-7.816.227-3.852.85-2.719,1.699-5.72,2.775-16.936,1.586-12.574,6.231-6.627-1.756-4.757-4.985-.85-6.627l1.02-1.812l3.115-3.568l1.076-1.926.226-1.926-.509-1.246-.793-1.076-.567-1.416v-7.137l-.509-.453-2.379-3.342-.68-1.699l1.586.963l4.021,1.813l1.586.906-.056-7.42-.51-3.172-1.416-2.379-2.775-1.416-1.36,1.926-1.019,3.059-1.983,2.095-1.246-4.644-5.72-9.969-1.303-1.643-1.133-.792-.85-1.19-.509-5.607-.737-1.643-1.699-.623-2.889.397l1.36-3.682l2.039-9.855.34-3.909l1.076-4.361l4.814-8.553l1.076-5.324l1.7-4.078l8.099-9.402l2.719-3.965.849-4.531-.339-7.76l1.472-2.492l11.442-.283l4.644-1.303l4.531-2.945l16.313-14.104l6.117-3.341l6.174-1.303l3.681,1.473l3.455,2.322l12.065,2.719l4.984,4.021l23.562,38.629l3.399,10.818l1.416,11.328.226,23.052l1.926,11.385l16.086,45.822l12.234,24.582l9.062,11.384l11.045,7.987l9.1192,1.246l6.627-4.078l6.8534-5.438l9.7421-2.662l22.0896,3.512l10.1953.396l10.7616-3.908l7.3066-4.758l4.3612-1.812l5.3809-.736l2.66209.849l5.32422,3.795l2.718626.85l8.892514-.453l2.66215.453l16.822,6.853l3.1719-.396l1.4727,2.775l3.4549,3.115l4.0782,2.662l3.2852,1.53l10.988,1.925l41.0641-1.756l4.8715,1.473l4.078,3.115l8.609,9.403l5.211,3.794l5.664,3.286l8.949,3.285l4.191.963l3.625.283l1.53-1.246l1.416.906l6.173,2.7753l1.36,1.9824l2.719,4.8711l6.513,5.0409l19.541,10.1953l5.891,4.1913l4.701,4.5313l1.869,3.9648l2.435,2.832l17.276,7.4198l1.246-2.6054.453-1.1895.056-1.8124h1.983l.736,1.5859l2.662,4.0214v1.6426l-2.039,5.0976l2.436,6.8534l10.252,15.0097L246.46,6.76068l2.605,7.41982-2.322,3.3984-1.983-1.1328-2.662-2.5488-3.511-2.4921-4.362-.9629-3.341.6796-3.059,1.416-2.605,1.7559-1.869,1.5859l8.722,2.3789l21.07,1.8691l6.287,4.8711-2.888,5.0976-4.305,2.0391-11.838.1699-3.965,2.2089-1.359,5.2676.113,6.0605l3.399,16.4256L246.8,85.4904l3.455,6.3437Z" clip-rule="evenodd" fill="#d9edfd" fill-rule="evenodd" stroke="#f9f9f9" stroke-width="0.78" stroke-linecap="round" stroke-linejoin="round"/><path id="caracas_animated-s-path6" d="M304.805,298.967l5.437-3.682l5.324-1.869l5.551-3.172.963-.283l1.076-.056l1.529.566.68,1.076.056,1.19-.623,1.132-3.058,2.832-.453,1.19-.114,1.473l1.36,2.945l1.189,1.076l1.36.906l2.718.906l10.875,2.379l14.727,1.02l3.285-.17l9.289-1.416l11.215-.51-.114,7.59.906,3.398.624,1.133l6.683,18.975.68,4.587-.227,2.606-1.416.283-2.775.113-1.19.453-1.019.737-9.346,8.949-2.209,1.359-6.173,2.889-1.473.396-1.586.227-1.699-.113-1.473-.283-1.189-.624-1.133-.679-1.19-.51-1.246-.227-1.189.397-1.133.623-4.191,3.625-2.889,3.228-1.246,2.096-.623,1.813l1.02,4.474-.51,1.076-.85.85-3.965,2.039-1.586,1.02-1.925,1.982-.227,1.246.736.623l1.133.227l1.19.736l1.076,4.078.51,1.529.906.737l1.189.566l1.02.68.736.793.453,1.302.114.737l2.548,7.816.623,2.945.17,1.643v11.158l-.679,7.703-1.416,5.268-3.965,8.439-.51,2.492-.113,2.039.623,1.19l8.552,11.384l9.459,21.184l4.475,25.828-.283,3.341-2.776,9.346-2.492,5.664-7.363,12.857-1.473,2.153-.963.906-3.455,1.982-1.019.793-2.606,2.889-2.548,1.529-1.586,1.303-2.096,2.322-.906,1.926-.68,2.719-1.926,11.951-4.134,5.607-5.211,21.636-.284,3.569.397,1.982.68,1.076.679,1.756.453,2.322.397,7.364l1.246,5.097.113,1.983-.17,1.472-3.115,8.326-.453,2.549-.113,2.153.396,1.416.51,1.189l2.266,2.719.509.906.567,1.416.453,2.435-.17,1.643-.51,1.246-.623.623-.793.34-2.662.51-.906.396-1.926,2.889-3.172-1.529-2.095-.963-.737-1.133-.963-1.869-.453-1.926-1.019-2.719-1.756-1.132-2.492-1.133-3.795-.567-1.473-.34-13.933-5.72-5.041-1.133-5.211-.283-1.643.17-2.945.623-1.359.396-2.492,1.133-2.21.397-3.115.113-14.386-1.813-3.285.114-5.438,1.019-6.117-1.472-6.4-2.153-3.285-.566h-2.379l-1.133.623-2.209,1.699-1.416.85-2.379.509-1.926-.453-2.379-1.246-1.869-.566-1.756-.397-9.232.567-3.625-.227-18.635-6.004-15.236-9.005-4.248-3.399-1.756-3.285-2.039-2.492-1.925-1.076-2.323-.793-1.076-.963-.453-1.416v-1.643l-.226-2.209-.85-2.718-2.379-4.362-1.642-2.039-1.416-1.416-2.379-1.302-1.36-.454-3.964-.793-2.663-1.246-.339-.906.509-.906l2.719-.85l10.309-2.265l2.435-1.133l1.246-.397h1.246l1.02.567.906.793l1.076.623l1.246.226l1.076-.453l2.039-1.472l1.19-.623l2.662-.963l1.076-.737.793-.963l1.19-2.492.849-1.076.906-.623l2.209-.68l5.268-.793l1.019-.736.963-1.133.114-1.302-.51-1.133-.906-.85-1.077-.736-2.492-1.19-2.832-.849-1.699-.85-4.644-4.927-3.682-9.063-.51-3.625.397-2.662l1.076-4.135l4.078-15.802l6.344-39.139.736-6.003-.34-6.401-1.473-4.927-4.531-5.608-3.681-3.398-5.211-3.795-5.551-3.342-8.949-6.06-8.496-7.533-5.607-5.268-2.946-3.002-4.134-3.795-5.948-4.871-6.287-1.529-4.4744-1.473-2.6054-2.265-4.1348-13.254-2.9452-2.039-1.5859-3.229-.9063-4.701-.5664-7.533-1.9258-4.531-5.7772-9.912-2.3223-9.799-4.9276-8.836-1.1329-6.06-.7363-2.039-3.3985-3.002-1.0762-1.756v-2.606l3.172-8.212-.1699-3.455v-.284l-.1134-2.605v-3.002l.9063-14.047L90.3085,300.1l6.7967-.567l1.0761-.736.7931-1.076.5097-.906.4531-1.813l1.9828-4.191l4.078-4.701.963-2.096.566-2.605.34-2.719l1.076-4.531l1.133-1.983l1.359-1.246l2.889-.736l11.498-.906h1.529l4.248,1.472l4.984-1.019l1.756-.114l1.303.284l1.869.056l2.152-.396l3.002-.736l2.039-1.19l1.36-1.133l1.472-3.115l1.133-1.926l2.436-2.775l1.982-.906l1.813-.284l8.439.51l1.303.51.906.68.453.793.17.509v.567l-.113,1.133-1.36,3.851-.339,1.473-.057,1.642.283,1.473.396,1.359.567,1.246.736,1.133.85.963.906.85l1.133.793l2.605,1.019l5.721,1.699l1.303.51.849.736.17.907-.679.793-.907.736-1.132.736-.907.85-.396.963.623,1.133l2.775.962l1.983.17l1.812-.17l3.059-1.076l4.361-2.322l21.24-16.086l9.289-5.381l8.269-3.455l2.776-2.662l2.775-7.589l3.965-7.477l4.758-3.512l6.91-9.005l2.039-2.039l2.265-1.133l1.133.566.907.963.509,1.19l1.983,7.08l1.189,2.378l3.795,5.325-10.139,7.08-2.492,3.964v1.813l.34,1.869.793,2.152l1.982,3.285l3.342,3.739l3.229,2.662l18.917,12.461l1.077.906l2.435,2.435l2.322,1.813l2.436,1.246l4.135,3.398l4.078,4.418l2.379,1.53l1.756.396Z" clip-rule="evenodd" fill="#d9edfd" fill-rule="evenodd" stroke="#f9f9f9" stroke-width="0.78" stroke-linecap="round" stroke-linejoin="round"/><path id="caracas_animated-s-path7" d="M356.17,137.826l-1.02,3.115-.509,3.625-.227,10.535.453,4.531l3.739,5.891l10.761,9.289l1.246.453l1.303.113l1.416-.226l1.246-.51l1.133-.68l3.115-2.379l2.266-1.359l1.246-.566l1.416-.397l1.586-.113l1.642.113l1.473.34l6.344,2.889l1.585.283l1.587.17l4.531-.567l1.472.114l1.416.396l1.246.566l1.133.85l1.076,1.076l3.059,3.739.566,1.699.17,2.322-.906,4.418-.736,2.322-.85,1.813-1.586,2.548-.283,1.303v2.606l4.078,33.021v1.756l-.34,1.869-1.189,2.209-.963,1.416-1.133,1.076-4.135,3.115-.849,1.076-.284,1.643.057,4.078-.17,1.756-.283,1.529-.057,1.359.737.793l1.642.114l4.928-3.172l19.484,8.213l1.19.226l1.302.17l1.19-.057l2.039-.283l3.342,2.096l4.984,11.271l2.209,8.723-.85,3.172-1.019.396-1.02-.34-.849-.849-1.586-2.096-1.246-.623-1.756-.057-2.379.85-1.303,1.189-.849,1.36-.284,1.472-1.812,4.815-2.266,4.588-1.529,1.642-1.359.34-2.719-2.605-1.133-.68-1.303-.283-1.359.226-1.133.51-4.588,2.719-8.326,3.738-2.549.623-2.152.17-1.302-.566-.85-.85-.34-1.189.17-1.36.453-1.359l1.133-2.436.34-1.132-.227-1.02-.793-.906-1.189-.567-4.815-.736-1.302-.623-1.076-.736-.907-.85-1.699-1.982-2.719-4.418-.793-.793-1.416-.793-1.982-.68-3.285-.849-1.983.056-1.642.397-2.153,1.302-1.699,2.096l1.813,12.178l1.529,5.267l3.229,6.627-11.215.51-9.289,1.416-3.285.17-14.727-1.02-10.875-2.379-2.718-.906-1.36-.906-1.189-1.076-1.36-2.946.114-1.472.453-1.19l3.058-2.832.623-1.132-.056-1.19-.68-1.076-1.529-.566-1.076.056-.963.283-5.551,3.172-5.324,1.869-5.438,3.682-1.755-.396-2.379-1.53-4.078-4.418-4.135-3.398-2.436-1.246-2.322-1.813-2.435-2.435-1.077-.906-18.917-12.461-3.229-2.662-3.342-3.739-1.982-3.285-.793-2.152-.34-1.869v-1.813l2.492-3.964l10.139-7.08-3.795-5.325-1.189-2.379-1.983-7.08-.51-1.189-.906-.963-1.133-.566-2.265,1.133-2.039,2.039-6.91,9.005-4.758,3.512-3.965,7.477-2.775,7.589-2.776,2.662-8.269,3.455-5.211-4.474-1.643-3.059-.793-6.004-.906-3.625-1.133-1.925-1.472-1.699-.51-1.473-.17-1.643.68-4.871-2.606-19.824.17-2.719.68-1.189l9.515-12.517l3.569-3.909l2.152-3.058-8.496-25.885l1.19-36.023l1.132-4.361l2.096-5.324l1.926-3.229.906-.906.963-.85l1.133-.679l1.359-.453l1.586-.114l1.529.114l1.36.453l4.474,2.775l1.246.34l1.246-.227l4.645-2.322l2.662-2.549l6.91-9.402.906-.34l2.436,4.475l8.609,10.931l10.082,8.949l10.875,4.248l32.228-.169l4.588.962l6.174,2.832l6.287,2.04l4.361-.85l3.795-1.926l4.531-1.076l3.172.283l1.926.906.906,1.926.17,2.096Z" clip-rule="evenodd" fill="#d9edfd" fill-rule="evenodd" stroke="#f9f9f9" stroke-width="0.78" stroke-linecap="round" stroke-linejoin="round"/><path id="caracas_animated-s-path8" d="M478.457,124.742h.113.057l.17.057.453.396.17.227.453.283.17.113.113.17.397.567.226.509.113.227.17.113.17.057h.113l.227.283.283.453.453,1.246l3.285,6.004l1.19,3.115l3.058,2.662.454.567l3.908,12.404.566,1.076l1.529-1.529.284-.227.226-.226.227-.227.17-.283.396-.963.113-.283.227-.227.283-.17.623-.283.34-.113l1.473-.227l2.549-.849.339-.17.567-.34.679-.51.454-.34.906-.396l1.756-1.246.453-.057h.679l1.87.51.396.057.227-.057.623-.34.226-.056.567-.114.849.057h.227l.849-.17h1.416l3.456-.51.849-.056.567.113l1.189,1.076l3.682,2.605l7.759,12.518l1.813,1.303l1.925,1.812.51.793-.906,1.133-2.039,1.869-.51,1.359-.396,1.473-.227,1.586.17,1.812.736,1.926l1.983,2.322l1.529,1.247l1.473.849l8.156,3.115l2.209,1.133l3.455,2.549l1.529,1.586.227,1.189.056,2.153-2.605,15.179-.566,1.36-2.209,3.398-1.19,2.605-.34,1.416-.056,2.039.396,2.493l3.569,8.949l2.208,2.775l5.834,4.815l12.235,7.929l3.511-1.699l2.323-1.473l2.039-1.586l1.132-.623l1.133-.396l1.076-.227h1.416l2.379.51l1.473.566l3.795,3.172l1.529,2.209.453,1.076l2.322,3.342l2.663,2.379.906,1.926l1.076,1.473l1.643.849l3.681-.34l5.268,1.36l1.189.793.906.566.793.283l3.512-.17l7.816-3.172l3.569-.793l7.873.68l4.814.963l2.662,2.266.51.849l1.246.85l2.096.849l7.873.227l2.265-.227l1.699.114l1.87.566l2.605,1.756l5.211,2.322l13.933,1.813l7.307,37.495.34,3.569-.057,3.455-.736,3.002-1.36,2.322-2.095,1.586-2.549,1.076-2.209,1.19-1.246,2.492-.283,3.285.679,5.72l1.077,3.569l1.472,2.832l1.813,1.812l1.982,1.643l6.74,4.248l2.209,2.152l2.209,2.549l2.266,4.305.679,2.945-.283,3.115-1.756,5.494-4.418,10.422-1.019,3.059-.68,3.171-.396,3.852.623,2.152.566,1.19l2.039,2.492l1.53,2.945.226,2.436-.453,2.662-4.475,13.65-1.359,1.982-1.189.85-2.266.85-2.322.566-5.381.453-14.783-.453-1.586-.396-2.096-.85-7.873-4.531-4.871-1.926-5.041-1.246-10.025-1.246-2.549-.68-5.381-2.379-5.097-2.775-2.492-.85-5.834-.736-20.9.68-7.59,1.416-1.756-.114-1.19-1.982.963-3.172l1.473-3.002l1.642-4.758.624-1.246.849-.963l6.854-3.794l5.494-1.7l7.703-1.246l1.302-.509l1.133-.624l1.983-1.869l2.775-4.191l5.041-9.912.34-1.416.226-1.586-.736-7.76.397-5.437-.34-2.209-.283-1.02-1.926-.849h-1.926l-3.172.566-3.172.227-1.642-.17-1.36-.453-4.474-2.946-1.36-.623-4.474-.906-6.627-12.064-3.229-3.399-1.359-.453-1.359-.17-2.549-.113-2.039-.34-3.229-.906-1.585-1.076-1.19-1.473-.793-1.642-1.359-2.153-1.53-.906-1.699-.34-3.965-.453-7.533-3.115-1.246-3.908-.736-.963-1.416-1.529-5.268-4.758-1.812-2.436-1.133-1.869-5.664-12.631-1.416-1.755-2.209-2.153-7.986-1.189-3.512.17-3.568,1.529-4.191,1.02-1.133.566-1.19.226-1.303-.283-1.359-1.756-.85-1.472-.962-1.246-1.19-.623-7.08.056-7.363,1.246-5.324-2.662-17.559-13.537-1.302.453-.793-.169-1.756.169-4.928,2.323-18.974,6.797-4.985-11.272-3.341-2.096-2.039.284-1.19.056-1.303-.17-1.189-.226-19.484-8.213-4.928,3.172-1.642-.113-.737-.793.057-1.36.283-1.529.17-1.756-.057-4.078.284-1.643.849-1.076l4.135-3.115l1.133-1.076.963-1.416l1.189-2.209.34-1.869v-1.756l-4.078-33.021v-2.606l.283-1.302l1.586-2.549.849-1.813.737-2.322.906-4.418-.17-2.322-.566-1.699-3.059-3.739-1.076-1.076-1.133-.849-1.246-.567-1.416-.396-1.473-.113-4.531.566-1.586-.17-1.586-.283-6.343-2.889-1.473-.34-1.643-.113-1.585.113-1.416.397-1.247.566-2.265,1.36-3.115,2.378-1.133.68-1.246.51-1.416.226-1.303-.113-1.246-.453-10.762-9.289-3.738-5.89-.453-4.532.226-10.535.51-3.625l1.02-3.115.056,1.19.907,1.246l1.982-1.87l1.869-2.718.623-1.246l7.987-3.569l10.535-2.265l34.72-2.662l22.203-5.891l21.466-1.586l22.6-2.379-.113,1.076-2.946,5.098-.453,1.246.34.34.17.51.113.226.113.114.114.056Z" clip-rule="evenodd" fill="#d9edfd" fill-rule="evenodd" stroke="#f9f9f9" stroke-width="0.78" stroke-linecap="round" stroke-linejoin="round"/><path id="caracas_animated-s-path9" d="M1228.54,193.447l.34.566l3.18,3.795l2.03,3.285l4.71,2.379l10.76,4.022l2.6,1.642l1.59,2.662.34,1.926v1.926l-.17,1.642v1.643l.28,1.472.57,1.247l1.13.962l1.7.793l2.95.68l1.81,1.416l1.19,1.19.68,1.302l1.53,1.303l2.21,1.529l7.41,3.739l2.55.792l3.63-.396l5.21-1.586l2.04.227l2.43.679l7.59,4.645l1.99,1.642l3.39,1.077l8.44-.454l15.92-1.755l12.4-3.739l2.78-.793l9.46-4.984l2.77-2.719l1.02-.793l2.04-.226l3,.396l12.24,3.342l3.11,2.039l4.82,6.627-1.93,1.359-7.02,3.682-1.36.34h-1.53l-3.11-.51-1.7-.113-6.4.623-1.42.34-1.25.509-1.19.623-1.07.793-.79.963-.57,1.246-.17,20.391.62,2.152l1.25,2.266l3.17,3.285l2.15,1.076l1.87.34l5.61-1.19l2.15.114l1.3.283l1.08.566.4,1.076-.63,1.416-.39,1.303.17,1.303l1.81,1.359l1.7.68l4.76,1.189l2.49,1.19l1.07.793l5.1,5.777.74,1.303.34,1.529-.45,2.492-1.08,1.076-1.42.623-1.47.34-1.19.567-.79,1.076-.23,1.756.28,5.607-.34,1.982-.56,1.586-3.06,4.248-.57,1.19-.51,1.359-.22,1.529.28,1.643.74,1.643l1.58,2.209.85,1.925.29,3.002-.29,1.869l2.44,5.325l25.2,40.214-1.13,2.549-.68.906-.79,1.19-28.78,30.868-.62,1.473.45,9.742-1.53,13.424l1.14,2.605l2.32,3.115l10.36,9.856l1.36,3.681l1.76,11.159.57.962.96.68l1.87.057l1.47-.283l1.3-.51l8.56-4.475l1.02-.793l1.13-.623l1.13-.566l1.59-.113l1.92.453l3.06,1.132l1.98.17l1.65-.17l1.24-.566l3.46-2.039l1.36-.34l1.47-.17l3.06,1.19l20.9,13.31l4.02,1.926l2.1.453l1.75.113l1.59.283l1.47.397l1.3.566l1.53,1.133l1.64,1.756l2.5,3.568l2.6,5.494l1.14,1.133l2.43,1.076l3.57,1.02l4.98,2.435l12.01,8.666l1.36,1.416l2.15,3.059l2.1,2.209l3.85,2.832l6.85,2.945l2.27,1.416l1.3.567l2.83.906l1.31.566l3.62,4.815l8.61,18.918l8.16,29.056.45.963.4.623l1.07.963l1.65.963l3.11,1.416l1.59,1.076l1.24,1.189.74,1.02l3,.623l5.21.17l76.92-5.268l6.91.227l1.3,3.228-1.24,2.436-1.65,1.925-.96.85-1.08.736-1.24.567-1.42.226-1.47-.113-1.47-.34-5.38-1.982-1.42-.17-1.36.283-1.19.567-1.02.792-.68,1.133-.51,1.36-.34,1.529-.68,1.189-5.94,8.27-.4,1.359.96,18.635l1.13,4.927l2.16,5.041l5.15,5.551l4.59,3.738l3.96,2.153l64.23,21.013.57,1.19-.28,1.076-.74,1.133-1.13,2.605-.29,1.529v1.643l.8,1.642l1.47,1.586l9.91,4.758l2.44,2.152l2.15,3.852-2.78,1.529-2.94.963-3.46.283-6.23-1.076-3.39-.113-3.35,1.189-3.68,2.493-6.11,5.607-2.04,2.605-3.23,5.891-2.04,2.662-2.55,2.266-8.78,5.211-7.25,1.925-7.7-.906-6.63-3.738-3.96-6.627-25.95-2.889-13.08.114-12.74,1.755-13.31,4.192-6.29,3.172-5.78,3.851-10.19,12.008-5.33,3.058-13.48-2.832-4.64.737-4.08,2.322-3.29,3.795-4.98,7.193-3.12,3.172-3.73,2.492-4.76,1.19-14.73-1.586-17.1,1.019-5.33-.849-4.87-1.53-4.08-.793-3.96.397-4.59,2.152-7.59,4.758-3.96,1.869-4.19,1.02-4.76-.51-4.42-1.473-4.25-.623-4.36,1.983-2.95,3.455-7.47,15.859-.96,3.172-1.25,2.945-2.21,2.435-2.94,1.416-6.52,1.643-3.06,1.359-1.98,1.756-3.28,3.965-2.04,1.643-2.55,1.076-2.72.566-5.61-.113-11.16-2.889-5.43-.679-6.01,1.699-4.98,2.039-4.59.34-3.46-2.266-1.35-5.891-3.06-1.416-2.95-2.152-16.93-16.199-4.87-2.719-4.08-.679-4.59.793-4.36,1.755-3.4,2.436-2.1,3.059-2.66,6.796-2.04,2.946-3.57,2.152-21.24,4.531-4.3.283-14.67-2.209-4.59.737-3.51,3.285-1.42,3.285-2.6,12.234l1.64,7.533l5.27,4.702l6.46,3.964l5.21,5.381.85,7.59-4.53,6.344-7.25,4.531-7.25,2.209h-4.71l-13.48-2.436-4.36.737-3.85,1.869-13.65,10.082-14.84,6.173-15.57,9.629-4.82,1.699-4.93.114-4.13-1.699-3.4-2.889-5.83-7.024-7.03-3.115-15.91-14.613-13.54-9.345-14.61-7.477-7.71-1.756-15.52-1.246-15.29-5.721-7.14-1.812-7.42-.34-13.14,1.643-.62-2.436-2.09-5.267-1.02-1.643-1.7-1.812-1.99-1.643-1.07-.736-2.78-.907-3.112-.679-6.854-.227-6.513.51h-1.643l-1.642-.227-1.36-.509-1.076-.68-.85-.963-.679-1.133-.567-1.246-.623-2.888-.396-3.172.113-3.455.453-3.172l1.36-4.248l2.265-4.305l3.852-3.851l3.908-3.002l1.982-1.926l12.572-14.783l3.57-8.609.96-4.815l1.65-3.285l1.47-2.266l16.59-16.878l2.5-3.342l6.62-12.574l1.93-2.322l11.55-10.139l1.19-1.473l1.31-2.095l5.94-15.633l1.65-9.572.85-2.889l3.11-6.4l3.23-15.066.17-3.342-.4-3.059.12-4.814-.17-1.586-.46-1.359-1.98-3.399-.79-1.019-1.25-2.323-.45-1.302-.17-1.586.05-1.643.63-3.115.68-6.74.51-1.529.68-1.416l1.02-1.7l2.04-4.531l1.02-1.699.9-1.19l1.08-.962l1.64-.793l6.57-1.53l4.08-1.416l1.19-.679l1.64-.227l2.04.113l3.17,1.077l3.51,1.755l1.59.567l2.21.566l6.11.68l18.47-1.359l3.85-1.247l3.34-.339l1.7.056l3.23.453l4.25,1.36l3.06.509l1.53-.792l1.3-2.096l1.92-5.608.46-3.001-.12-2.266-1.98-5.324.4-1.869l1.13-2.493l3.34-4.417l4.25-4.248l7.19-4.192-3.85-7.929-1.3-1.87-1.47-1.302-2.78-1.643-2.72-1.982-3-2.719-5.32-5.891-4.65-4.304-2.21-1.53-1.19-.566-9-2.549-.45-.226-.63-.793-.79-1.416-.45-2.832v-7.703l-.29-1.813-.56-1.869-1.08-2.379-1.13-3.398-1.02-1.756-1.59-2.096-3.62-3.285-2.21-1.529-1.81-.963-7.37-2.152-2.21-1.473-7.08-7.477-1.98-1.642-1.07-.736-1.31-.567-1.47-.396-1.7-.114-16.71.623-1.58-.226-1.31-.567-1.24-.623-1.19-.962-1.13-1.303-4.82-6.91-3.45-3.795-4.03-3.342-2.37-2.945-1.7-3.115-1.7-1.303-1.65-.906-1.35-.567-1.08-.963-.79-1.302-.63-2.039-.22-7.25-.4-1.416-.62-1.19-2.89-3.908-.4-.736-.39-.963-.34-1.246-.29-3.115.12-3.172l1.86-2.323l2.27-2.209l13.14-6.513l1.81-1.926l1.31-2.379.51-1.302.34-1.473.11-1.586-.11-1.643-.29-1.472-.05-1.586.05-3.172-.17-1.416-.39-1.359-.51-1.133-.74-1.303-1.76-1.756-2.83-1.416-4.47-1.359-9.46-1.756-12.97-3.568-5.04-2.096-4.87-2.549-2.04-1.586-.91-.906-1.59-2.039-11.437-20.9-1.869,1.359-1.246,1.416-12.121,18.805-53.695-29.566-1.642-1.36-.453-.849.17-1.7.793-1.812l5.89-7.307l1.416-3.455l1.416-8.269-2.775-6.854-5.551-8.326-.566-1.189-.963-2.889-.34-7.25l1.926-21.183l7.08-6.287l1.302-.623l1.473-.34l2.096.453l1.246.85l1.019.906l1.077.453l1.302-.396l3.002-3.286l2.266-1.586l2.435-1.132l7.25-2.266l3.625-.793l1.813-.963l2.152-1.586l6.74-6.797l2.662-1.812l6.231-1.982l3.341-2.323l1.303-1.189l1.529-.963l1.303-.68l1.303-.453l1.246-.736l2.719-4.191l3.172-11.895.226-.906l30.244,5.494l36.76,6.797l10.76,5.607l9.69,2.436l2.94,1.189v1.813l-19.76-6.457-5.21-.963l2.26,3.795l4.76,2.888l5.49,1.869l11.5,1.02l2.78-.34l2.43-.906l4.42-2.266l7.93-1.642l9.4-5.948l4.59-2.095l5.21-.68l14.44,2.662l19.43,1.246l9.8-1.416l7.48-4.361l2.88-3.795l2.21-3.965l3.06-9.685.06-4.135-1.36-6.91l1.3-3.625l2.04,2.322l2.55,1.36l2.95.453l3.17-.34-1.93,2.549-1.07.623-2.38.453l3,3.625l4.59-.34l2.6-2.492-2.89-2.776l3.06-2.152l6.69-8.722l3.85-.623l7.47-2.663l4.14-.339-.74,1.812-.39.736-.85,1.077l1.47-.454l2.43-.453l1.48-.793l1.87,3.229l1.52-.397l1.65-1.812l1.07-.453Z" clip-rule="evenodd" fill="#d9edfd" fill-rule="evenodd" stroke="#f9f9f9" stroke-width="0.78" stroke-linecap="round" stroke-linejoin="round"/><path id="caracas_animated-u-caracas2" d="M597.016,114.434l1.019-.113l4.135-1.246l1.246-.113.736-.114l1.303-.396.283-.057.283-.056.567.056l1.642.283l3.116.963l1.019.51.397.227l1.132.396l2.776.227l3.285,5.267l2.039,3.399-.227.793-.509,1.585-3.285,3.569-3.172,2.888-1.756,4.248-2.549,13.084-7.816-1.472-4.305.113-3.228.85-1.983.679-4.928,2.889-6.57,2.549-2.549.453-3.228.113-5.721-.396-6.004-1.756-11.951-5.324-6.343-1.87-.85-.169-.906-.454-.17-.226-.397-2.492l6.91-4.815l2.663-1.302.509-.057h1.076l.794-.113.679.17.737.339l1.302.34.68-.056.68-.34l1.812-1.133.396-.453.454-.51.226-.793.906-.34l4.815-.509l1.019-.284.51-.283-.056-.226-.057-.34-.227-.51-.056-.34v-.623l-.057-.283-.17-.68v-.283l.113-1.246.68-2.436.057-.283-.057-.34-.17-.339-.736-.963-.057-.68v-1.02l.793-1.812.736-.963.907-.736.396-.114.34-.056h.283l.283-.113l1.87-1.02l3.851-1.303.736-.396.397-.34.057-.227-.057-.339-.113-.34-.227-.283-1.076-1.02-.113-.283.283-.793.566-1.133l1.529-2.322.85-.963.68-.51h.34l.339.057.227.113.283.227.85.793.736.509l1.133.623l1.416,1.02l1.756.68.396.113.68.057.736.113.397.113l1.359.68.453.17l2.039.396.34.17.51.453.283.283.17.284.68.056Z" transform="matrix(10 0 0 10-5244.934572-1185.893991)" clip-rule="evenodd" fill="#129ae5" fill-rule="evenodd" stroke="#f9f9f9" stroke-width="0.78" stroke-linecap="round" stroke-linejoin="round"/></g><mask id="caracas_animated-u-mask0_189_6628" mask-type="alpha" x="-150%" y="-150%" height="400%" width="400%"><rect id="caracas_animated-s-rect1" width="1184" height="228" rx="20" ry="20" fill="#eff9ff"/></mask></g>
<script><![CDATA[
!function(t,n){"object"==typeof exports&&"undefined"!=typeof module?module.exports=n():"function"==typeof __SVGATOR_DEFINE__&&__SVGATOR_DEFINE__.amd?__SVGATOR_DEFINE__(n):((t="undefined"!=typeof globalThis?globalThis:t||self).__SVGATOR_PLAYER__=t.__SVGATOR_PLAYER__||{},t.__SVGATOR_PLAYER__["5c7f360c"]=n())}(this,(function(){"use strict";function t(t,n){var e=Object.keys(t);if(Object.getOwnPropertySymbols){var r=Object.getOwnPropertySymbols(t);n&&(r=r.filter((function(n){return Object.getOwnPropertyDescriptor(t,n).enumerable}))),e.push.apply(e,r)}return e}function n(n){for(var e=1;e<arguments.length;e++){var r=null!=arguments[e]?arguments[e]:{};e%2?t(Object(r),!0).forEach((function(t){o(n,t,r[t])})):Object.getOwnPropertyDescriptors?Object.defineProperties(n,Object.getOwnPropertyDescriptors(r)):t(Object(r)).forEach((function(t){Object.defineProperty(n,t,Object.getOwnPropertyDescriptor(r,t))}))}return n}function e(t){return(e="function"==typeof Symbol&&"symbol"==typeof Symbol.iterator?function(t){return typeof t}:function(t){return t&&"function"==typeof Symbol&&t.constructor===Symbol&&t!==Symbol.prototype?"symbol":typeof t})(t)}function r(t,n){if(!(t instanceof n))throw new TypeError("Cannot call a class as a function")}function i(t,n){for(var e=0;e<n.length;e++){var r=n[e];r.enumerable=r.enumerable||!1,r.configurable=!0,"value"in r&&(r.writable=!0),Object.defineProperty(t,r.key,r)}}function u(t,n,e){return n&&i(t.prototype,n),e&&i(t,e),t}function o(t,n,e){return n in t?Object.defineProperty(t,n,{value:e,enumerable:!0,configurable:!0,writable:!0}):t[n]=e,t}function a(t){return(a=Object.setPrototypeOf?Object.getPrototypeOf:function(t){return t.__proto__||Object.getPrototypeOf(t)})(t)}function l(t,n){return(l=Object.setPrototypeOf||function(t,n){return t.__proto__=n,t})(t,n)}function s(){if("undefined"==typeof Reflect||!Reflect.construct)return!1;if(Reflect.construct.sham)return!1;if("function"==typeof Proxy)return!0;try{return Boolean.prototype.valueOf.call(Reflect.construct(Boolean,[],(function(){}))),!0}catch(t){return!1}}function f(t,n,e){return(f=s()?Reflect.construct:function(t,n,e){var r=[null];r.push.apply(r,n);var i=new(Function.bind.apply(t,r));return e&&l(i,e.prototype),i}).apply(null,arguments)}function c(t,n){if(n&&("object"==typeof n||"function"==typeof n))return n;if(void 0!==n)throw new TypeError("Derived constructors may only return object or undefined");return function(t){if(void 0===t)throw new ReferenceError("this hasn't been initialised - super() hasn't been called");return t}(t)}function h(t,n,e){return(h="undefined"!=typeof Reflect&&Reflect.get?Reflect.get:function(t,n,e){var r=function(t,n){for(;!Object.prototype.hasOwnProperty.call(t,n)&&null!==(t=a(t)););return t}(t,n);if(r){var i=Object.getOwnPropertyDescriptor(r,n);return i.get?i.get.call(e):i.value}})(t,n,e||t)}function v(t){return function(t){if(Array.isArray(t))return y(t)}(t)||function(t){if("undefined"!=typeof Symbol&&null!=t[Symbol.iterator]||null!=t["@@iterator"])return Array.from(t)}(t)||function(t,n){if(!t)return;if("string"==typeof t)return y(t,n);var e=Object.prototype.toString.call(t).slice(8,-1);"Object"===e&&t.constructor&&(e=t.constructor.name);if("Map"===e||"Set"===e)return Array.from(t);if("Arguments"===e||/^(?:Ui|I)nt(?:8|16|32)(?:Clamped)?Array$/.test(e))return y(t,n)}(t)||function(){throw new TypeError("Invalid attempt to spread non-iterable instance.\nIn order to be iterable, non-array objects must have a [Symbol.iterator]() method.")}()}function y(t,n){(null==n||n>t.length)&&(n=t.length);for(var e=0,r=new Array(n);e<n;e++)r[e]=t[e];return r}function g(t,n,e){if(Number.isInteger(t))return t;var r=Math.pow(10,n);return Math[e]((+t+Number.EPSILON)*r)/r}Number.isInteger||(Number.isInteger=function(t){return"number"==typeof t&&isFinite(t)&&Math.floor(t)===t}),Number.EPSILON||(Number.EPSILON=2220446049250313e-31);var p=d(Math.pow(10,-6));function d(t){var n=arguments.length>1&&void 0!==arguments[1]?arguments[1]:6;return g(t,n,"round")}function m(t,n){var e=arguments.length>2&&void 0!==arguments[2]?arguments[2]:p;return Math.abs(t-n)<e}d(Math.pow(10,-2)),d(Math.pow(10,-4));var b=Math.PI/180;function w(t){return t*b}function x(t){return t/b}function _(t){return t}function A(t,n,e){var r=1-e;return 3*e*r*(t*r+n*e)+e*e*e}function k(){var t=arguments.length>0&&void 0!==arguments[0]?arguments[0]:0,n=arguments.length>1&&void 0!==arguments[1]?arguments[1]:0,e=arguments.length>2&&void 0!==arguments[2]?arguments[2]:1,r=arguments.length>3&&void 0!==arguments[3]?arguments[3]:1;return t<0||t>1||e<0||e>1?null:m(t,n)&&m(e,r)?_:function(i){if(i<=0)return t>0?i*n/t:0===n&&e>0?i*r/e:0;if(i>=1)return e<1?1+(i-1)*(r-1)/(e-1):1===e&&t<1?1+(i-1)*(n-1)/(t-1):1;for(var u,o=0,a=1;o<a;){var l=A(t,e,u=(o+a)/2);if(m(i,l))break;l<i?o=u:a=u}return A(n,r,u)}}function S(){return 1}function O(t){return 1===t?1:0}function j(){var t=arguments.length>0&&void 0!==arguments[0]?arguments[0]:1,n=arguments.length>1&&void 0!==arguments[1]?arguments[1]:0;if(1===t){if(0===n)return O;if(1===n)return S}var e=1/t;return function(t){return t>=1?1:(t+=n*e)-t%e}}var M=Math.sin,E=Math.cos,P=Math.acos,I=Math.asin,R=Math.tan,F=Math.atan2,N=Math.sqrt,T=function(){function t(){var n=arguments.length>0&&void 0!==arguments[0]?arguments[0]:1,e=arguments.length>1&&void 0!==arguments[1]?arguments[1]:0,i=arguments.length>2&&void 0!==arguments[2]?arguments[2]:0,u=arguments.length>3&&void 0!==arguments[3]?arguments[3]:1,o=arguments.length>4&&void 0!==arguments[4]?arguments[4]:0,a=arguments.length>5&&void 0!==arguments[5]?arguments[5]:0;r(this,t),this.m=[n,e,i,u,o,a],this.i=null,this.w=null,this.s=null}return u(t,[{key:"determinant",get:function(){var t=this.m;return t[0]*t[3]-t[1]*t[2]}},{key:"isIdentity",get:function(){if(null===this.i){var t=this.m;this.i=1===t[0]&&0===t[1]&&0===t[2]&&1===t[3]&&0===t[4]&&0===t[5]}return this.i}},{key:"point",value:function(t,n){var e=this.m;return{x:e[0]*t+e[2]*n+e[4],y:e[1]*t+e[3]*n+e[5]}}},{key:"translateSelf",value:function(){var t=arguments.length>0&&void 0!==arguments[0]?arguments[0]:0,n=arguments.length>1&&void 0!==arguments[1]?arguments[1]:0;if(!t&&!n)return this;var e=this.m;return e[4]+=e[0]*t+e[2]*n,e[5]+=e[1]*t+e[3]*n,this.w=this.s=this.i=null,this}},{key:"rotateSelf",value:function(){var t=arguments.length>0&&void 0!==arguments[0]?arguments[0]:0;if(t%=360){t=w(t);var n=M(t),e=E(t),r=this.m,i=r[0],u=r[1];r[0]=i*e+r[2]*n,r[1]=u*e+r[3]*n,r[2]=r[2]*e-i*n,r[3]=r[3]*e-u*n,this.w=this.s=this.i=null}return this}},{key:"scaleSelf",value:function(){var t=arguments.length>0&&void 0!==arguments[0]?arguments[0]:1,n=arguments.length>1&&void 0!==arguments[1]?arguments[1]:1;if(1!==t||1!==n){var e=this.m;e[0]*=t,e[1]*=t,e[2]*=n,e[3]*=n,this.w=this.s=this.i=null}return this}},{key:"skewSelf",value:function(t,n){if(n%=360,(t%=360)||n){var e=this.m,r=e[0],i=e[1],u=e[2],o=e[3];t&&(t=R(w(t)),e[2]+=r*t,e[3]+=i*t),n&&(n=R(w(n)),e[0]+=u*n,e[1]+=o*n),this.w=this.s=this.i=null}return this}},{key:"resetSelf",value:function(){var t=arguments.length>0&&void 0!==arguments[0]?arguments[0]:1,n=arguments.length>1&&void 0!==arguments[1]?arguments[1]:0,e=arguments.length>2&&void 0!==arguments[2]?arguments[2]:0,r=arguments.length>3&&void 0!==arguments[3]?arguments[3]:1,i=arguments.length>4&&void 0!==arguments[4]?arguments[4]:0,u=arguments.length>5&&void 0!==arguments[5]?arguments[5]:0,o=this.m;return o[0]=t,o[1]=n,o[2]=e,o[3]=r,o[4]=i,o[5]=u,this.w=this.s=this.i=null,this}},{key:"recomposeSelf",value:function(){var t=arguments.length>0&&void 0!==arguments[0]?arguments[0]:null,n=arguments.length>1&&void 0!==arguments[1]?arguments[1]:null,e=arguments.length>2&&void 0!==arguments[2]?arguments[2]:null,r=arguments.length>3&&void 0!==arguments[3]?arguments[3]:null,i=arguments.length>4&&void 0!==arguments[4]?arguments[4]:null;return this.isIdentity||this.resetSelf(),t&&(t.x||t.y)&&this.translateSelf(t.x,t.y),n&&this.rotateSelf(n),e&&(e.x&&this.skewSelf(e.x,0),e.y&&this.skewSelf(0,e.y)),!r||1===r.x&&1===r.y||this.scaleSelf(r.x,r.y),i&&(i.x||i.y)&&this.translateSelf(i.x,i.y),this}},{key:"decompose",value:function(){var t=arguments.length>0&&void 0!==arguments[0]?arguments[0]:0,n=arguments.length>1&&void 0!==arguments[1]?arguments[1]:0,e=this.m,r=e[0]*e[0]+e[1]*e[1],i=[[e[0],e[1]],[e[2],e[3]]],u=N(r);if(0===u)return{origin:{x:d(e[4]),y:d(e[5])},translate:{x:d(t),y:d(n)},scale:{x:0,y:0},skew:{x:0,y:0},rotate:0};i[0][0]/=u,i[0][1]/=u;var o=e[0]*e[3]-e[1]*e[2]<0;o&&(u=-u);var a=i[0][0]*i[1][0]+i[0][1]*i[1][1];i[1][0]-=i[0][0]*a,i[1][1]-=i[0][1]*a;var l,s=N(i[1][0]*i[1][0]+i[1][1]*i[1][1]);return 0===s?{origin:{x:d(e[4]),y:d(e[5])},translate:{x:d(t),y:d(n)},scale:{x:d(u),y:0},skew:{x:0,y:0},rotate:0}:(i[1][0]/=s,i[1][1]/=s,a/=s,i[1][1]<0?(l=x(P(i[1][1])),i[0][1]<0&&(l=360-l)):l=x(I(i[0][1])),o&&(l=-l),a=x(F(a,N(i[0][0]*i[0][0]+i[0][1]*i[0][1]))),o&&(a=-a),{origin:{x:d(e[4]),y:d(e[5])},translate:{x:d(t),y:d(n)},scale:{x:d(u),y:d(s)},skew:{x:d(a),y:0},rotate:d(l)})}},{key:"multiply",value:function(t){return this.clone().multiplySelf(t)}},{key:"preMultiply",value:function(t){return t.multiply(this)}},{key:"multiplySelf",value:function(t){var n=q(this.m,t.m),e=n.a,r=n.b,i=n.c,u=n.d,o=n.tx,a=n.ty;return this.resetSelf(e,r,i,u,o,a),this}},{key:"preMultiplySelf",value:function(t){var n=q(t.m,this.m),e=n.a,r=n.b,i=n.c,u=n.d,o=n.tx,a=n.ty;return this.resetSelf(e,r,i,u,o,a),this}},{key:"clone",value:function(){var t=this.m;return new this.constructor(t[0],t[1],t[2],t[3],t[4],t[5])}},{key:"toString",value:function(){var t=arguments.length>0&&void 0!==arguments[0]?arguments[0]:" ";if(null===this.s){var n=this.m.map((function(t){return d(t)}));1===n[0]&&0===n[1]&&0===n[2]&&1===n[3]?this.s="translate("+n[4]+t+n[5]+")":this.s="matrix("+n.join(t)+")"}return this.s}}],[{key:"create",value:function(t){return t?Array.isArray(t)?f(this,v(t)):t instanceof this?t.clone():(new this).recomposeSelf(t.origin,t.rotate,t.skew,t.scale,t.translate):new this}}]),t}();function q(t,n){return{a:t[0]*n[0]+t[2]*n[1],b:t[1]*n[0]+t[3]*n[1],c:t[0]*n[2]+t[2]*n[3],d:t[1]*n[2]+t[3]*n[3],tx:t[0]*n[4]+t[2]*n[5]+t[4],ty:t[1]*n[4]+t[3]*n[5]+t[5]}}function B(t,n,e){return t>=.5?e:n}function D(t,n,e){return 0===t||n===e?n:t*(e-n)+n}function L(t,n,e){var r=D(t,n,e);return r<=0?0:r}function C(t,n,e){var r=D(t,n,e);return r<=0?0:r>=1?1:r}function V(t,n,e){return 0===t?n:1===t?e:{x:D(t,n.x,e.x),y:D(t,n.y,e.y)}}function G(t,n,e){var r=function(t,n,e){return Math.round(D(t,n,e))}(t,n,e);return r<=0?0:r>=255?255:r}function z(t,n,e){return 0===t?n:1===t?e:{r:G(t,n.r,e.r),g:G(t,n.g,e.g),b:G(t,n.b,e.b),a:D(t,null==n.a?1:n.a,null==e.a?1:e.a)}}function Y(t,n){for(var e=[],r=0;r<t;r++)e.push(n);return e}function $(t,n){if(--n<=0)return t;var e=(t=Object.assign([],t)).length;do{for(var r=0;r<e;r++)t.push(t[r])}while(--n>0);return t}var U,Q=function(){function t(n){r(this,t),this.list=n,this.length=n.length}return u(t,[{key:"setAttribute",value:function(t,n){for(var e=this.list,r=0;r<this.length;r++)e[r].setAttribute(t,n)}},{key:"removeAttribute",value:function(t){for(var n=this.list,e=0;e<this.length;e++)n[e].removeAttribute(t)}},{key:"style",value:function(t,n){for(var e=this.list,r=0;r<this.length;r++)e[r].style[t]=n}}]),t}(),H=/-./g,J=function(t,n){return n.toUpperCase()};function Z(t){return"function"==typeof t?t:B}function K(t){return t?"function"==typeof t?t:Array.isArray(t)?function(t){var n=arguments.length>1&&void 0!==arguments[1]?arguments[1]:_;if(!Array.isArray(t))return n;switch(t.length){case 1:return j(t[0])||n;case 2:return j(t[0],t[1])||n;case 4:return k(t[0],t[1],t[2],t[3])||n}return n}(t,null):function(t,n){var e=arguments.length>2&&void 0!==arguments[2]?arguments[2]:_;switch(t){case"linear":return _;case"steps":return j(n.steps||1,n.jump||0)||e;case"bezier":case"cubic-bezier":return k(n.x1||0,n.y1||0,n.x2||0,n.y2||0)||e}return e}(t.type,t.value,null):null}function W(t,n,e){var r=arguments.length>3&&void 0!==arguments[3]&&arguments[3],i=n.length-1;if(t<=n[0].t)return r?[0,0,n[0].v]:n[0].v;if(t>=n[i].t)return r?[i,1,n[i].v]:n[i].v;var u,o=n[0],a=null;for(u=1;u<=i;u++){if(!(t>n[u].t)){a=n[u];break}o=n[u]}return null==a?r?[i,1,n[i].v]:n[i].v:o.t===a.t?r?[u,1,a.v]:a.v:(t=(t-o.t)/(a.t-o.t),o.e&&(t=o.e(t)),r?[u,t,e(t,o.v,a.v)]:e(t,o.v,a.v))}function X(t,n){var e=arguments.length>2&&void 0!==arguments[2]?arguments[2]:null;return t&&t.length?"function"!=typeof n?null:("function"!=typeof e&&(e=null),function(r){var i=W(r,t,n);return null!=i&&e&&(i=e(i)),i}):null}function tt(t,n){return t.t-n.t}function nt(t,n,r,i,u){var o,a="@"===r[0],l="#"===r[0],s=U[r],f=B;switch(a?(o=r.substr(1),r=o.replace(H,J)):l&&(r=r.substr(1)),e(s)){case"function":if(f=s(i,u,W,K,r,a,n,t),l)return f;break;case"string":f=X(i,Z(s));break;case"object":if((f=X(i,Z(s.i),s.f))&&"function"==typeof s.u)return s.u(n,f,r,a,t)}return f?function(t,n,e){if(arguments.length>3&&void 0!==arguments[3]&&arguments[3])return t instanceof Q?function(r){return t.style(n,e(r))}:function(r){return t.style[n]=e(r)};if(Array.isArray(n)){var r=n.length;return function(i){var u=e(i);if(null==u)for(var o=0;o<r;o++)t[o].removeAttribute(n);else for(var a=0;a<r;a++)t[a].setAttribute(n,u)}}return function(r){var i=e(r);null==i?t.removeAttribute(n):t.setAttribute(n,i)}}(n,r,f,a):null}function et(t,n,r,i){if(!i||"object"!==e(i))return null;var u=null,o=null;return Array.isArray(i)?o=function(t){if(!t||!t.length)return null;for(var n=0;n<t.length;n++)t[n].e&&(t[n].e=K(t[n].e));return t.sort(tt)}(i):(o=i.keys,u=i.data||null),o?nt(t,n,r,o,u):null}function rt(t,n,e){if(!e)return null;var r=[];for(var i in e)if(e.hasOwnProperty(i)){var u=et(t,n,i,e[i]);u&&r.push(u)}return r.length?r:null}function it(t,n){if(!n.settings.duration||n.settings.duration<0)return null;var e,r,i,u,o,a=function(t,n){if(!n)return null;var e=[];if(Array.isArray(n))for(var r=n.length,i=0;i<r;i++){var u=n[i];if(2===u.length){var o=null;if("string"==typeof u[0])o=t.getElementById(u[0]);else if(Array.isArray(u[0])){o=[];for(var a=0;a<u[0].length;a++)if("string"==typeof u[0][a]){var l=t.getElementById(u[0][a]);l&&o.push(l)}o=o.length?1===o.length?o[0]:new Q(o):null}if(o){var s=rt(t,o,u[1]);s&&(e=e.concat(s))}}}else for(var f in n)if(n.hasOwnProperty(f)){var c=t.getElementById(f);if(c){var h=rt(t,c,n[f]);h&&(e=e.concat(h))}}return e.length?e:null}(t,n.elements);return a?(e=a,r=n.settings,i=r.duration,u=e.length,o=null,function(t,n){var a=r.iterations||1/0,l=(r.alternate&&a%2==0)^r.direction>0?i:0,s=t%i,f=1+(t-s)/i;n*=r.direction,r.alternate&&f%2==0&&(n=-n);var c=!1;if(f>a)s=l,c=!0,-1===r.fill&&(s=r.direction>0?0:i);else if(n<0&&(s=i-s),s===o)return!1;o=s;for(var h=0;h<u;h++)e[h](s);return c}):null}function ut(t,n){for(var e=n.querySelectorAll("svg"),r=0;r<e.length;r++)if(e[r].id===t.root&&!e[r].svgatorAnimation)return e[r].svgatorAnimation=!0,e[r];return null}function ot(t){var n=function(t){return t.shadowRoot};return document?Array.from(t.querySelectorAll(":not("+["a","area","audio","br","canvas","circle","datalist","embed","g","head","hr","iframe","img","input","link","object","path","polygon","rect","script","source","style","svg","title","track","video"].join()+")")).filter(n).map(n):[]}function at(t){var n=arguments.length>1&&void 0!==arguments[1]?arguments[1]:document,e=arguments.length>2&&void 0!==arguments[2]?arguments[2]:0,r=ut(t,n);if(r)return r;if(e>=20)return null;for(var i=ot(n),u=0;u<i.length;u++){var o=at(t,i[u],e+1);if(o)return o}return null}function lt(t,n){if(U=n,!t||!t.root||!Array.isArray(t.animations))return null;var e=at(t);if(!e)return null;var r=t.animations.map((function(t){return it(e,t)})).filter((function(t){return!!t}));return r.length?{svg:e,animations:r,animationSettings:t.animationSettings,options:t.options||void 0}:null}function st(t){var n=arguments.length>1&&void 0!==arguments[1]?arguments[1]:null,e=arguments.length>2&&void 0!==arguments[2]?arguments[2]:Number,r=arguments.length>3&&void 0!==arguments[3]?arguments[3]:"undefined"!=typeof BigInt&&BigInt,i="0x"+(t.replace(/[^0-9a-fA-F]+/g,"")||27);return n&&r&&e.isSafeInteger&&!e.isSafeInteger(+i)?e(r(i))%n+n:+i}function ft(t,n,e){return!t||!e||n>t.length?t:t.substring(0,n)+ft(t.substring(n+1),e,e)}function ct(t){var n=arguments.length>1&&void 0!==arguments[1]?arguments[1]:27;return!t||t%n?t%n:[0,1].includes(n)?n:ct(t/n,n)}function ht(t,n,e){if(t&&t.length){var r=st(e),i=ct(r)+5,u=ft(t,ct(r,5),i);return u=u.replace(/\x7c$/g,"==").replace(/\x2f$/g,"="),u=function(t,n,e){var r=+("0x"+t.substring(0,4));t=t.substring(4);for(var i=st(n,r)%r+e%27,u=[],o=0;o<t.length;o+=2)if("|"!==t[o]){var a=+("0x"+t[o]+t[o+1])-i;u.push(a)}else{var l=+("0x"+t.substring(o+1,o+1+4))-i;o+=3,u.push(l)}return String.fromCharCode.apply(String,u)}(u=(u=atob(u)).replace(/[\x41-\x5A]/g,""),n,r),u=JSON.parse(u)}}var vt=[{key:"alternate",def:!1},{key:"fill",def:1},{key:"iterations",def:0},{key:"direction",def:1},{key:"speed",def:1},{key:"fps",def:100}],yt=function(){function t(n,e){var i=this,u=arguments.length>2&&void 0!==arguments[2]?arguments[2]:null;r(this,t),this._id=0,this._running=!1,this._rollingBack=!1,this._animations=n,this._settings=e,(!u||u<"2022-05-02")&&delete this._settings.speed,vt.forEach((function(t){i._settings[t.key]=i._settings[t.key]||t.def})),this.duration=e.duration,this.offset=e.offset||0,this.rollbackStartOffset=0}return u(t,[{key:"alternate",get:function(){return this._settings.alternate}},{key:"fill",get:function(){return this._settings.fill}},{key:"iterations",get:function(){return this._settings.iterations}},{key:"direction",get:function(){return this._settings.direction}},{key:"speed",get:function(){return this._settings.speed}},{key:"fps",get:function(){return this._settings.fps}},{key:"maxFiniteDuration",get:function(){return this.iterations>0?this.iterations*this.duration:this.duration}},{key:"_apply",value:function(t){for(var n=arguments.length>1&&void 0!==arguments[1]?arguments[1]:{},e=this._animations,r=e.length,i=0,u=0;u<r;u++)n[u]?i++:(n[u]=e[u](t,1),n[u]&&i++);return i}},{key:"_rollback",value:function(t){var n=this,e=1/0,r=null;this.rollbackStartOffset=t,this._rollingBack=!0,this._running=!0;this._id=window.requestAnimationFrame((function i(u){if(n._rollingBack){null==r&&(r=u);var o=Math.round(t-(u-r)*n.speed);if(o>n.duration&&e!==1/0){var a=!!n.alternate&&o/n.duration%2>1,l=o%n.duration;o=(l+=a?n.duration:0)||n.duration}var s=(n.fps?1e3/n.fps:0)*n.speed,f=Math.max(0,o);f<=e-s&&(n.offset=f,e=f,n._apply(f));var c=n.iterations>0&&-1===n.fill&&o>=n.maxFiniteDuration;(o<=0||n.offset<o||c)&&n.stop(),n._id=window.requestAnimationFrame(i)}}))}},{key:"_start",value:function(){var t=this,n=arguments.length>0&&void 0!==arguments[0]?arguments[0]:0,e=-1/0,r=null,i={};this._running=!0;var u=function u(o){null==r&&(r=o);var a=Math.round((o-r)*t.speed+n),l=(t.fps?1e3/t.fps:0)*t.speed;if(a>=e+l&&!t._rollingBack&&(t.offset=a,e=a,t._apply(a,i)===t._animations.length))return void t.pause(!0);t._id=window.requestAnimationFrame(u)};this._id=window.requestAnimationFrame(u)}},{key:"_pause",value:function(){this._id&&window.cancelAnimationFrame(this._id),this._running=!1}},{key:"play",value:function(){if(!this._running)return this._rollingBack?this._rollback(this.offset):this._start(this.offset)}},{key:"stop",value:function(){this._pause(),this.offset=0,this.rollbackStartOffset=0,this._rollingBack=!1,this._apply(0)}},{key:"reachedToEnd",value:function(){return this.iterations>0&&this.offset>=this.iterations*this.duration}},{key:"restart",value:function(){var t=arguments.length>0&&void 0!==arguments[0]&&arguments[0];this.stop(t),this.play(t)}},{key:"pause",value:function(){this._pause()}},{key:"reverse",value:function(){this.direction=-this.direction}}],[{key:"build",value:function(t,n){delete t.animationSettings,t.options=ht(t.options,t.root,"5c7f360c"),t.animations.map((function(n){n.settings=ht(n.s,t.root,"5c7f360c"),delete n.s,t.animationSettings||(t.animationSettings=n.settings)}));var e=t.version;if(!(t=lt(t,n)))return null;var r=t.options||{},i=new this(t.animations,t.animationSettings,e);return{el:t.svg,options:r,player:i}}},{key:"push",value:function(t){return this.build(t)}},{key:"init",value:function(){var t=this,n=window.__SVGATOR_PLAYER__&&window.__SVGATOR_PLAYER__["5c7f360c"];Array.isArray(n)&&n.splice(0).forEach((function(n){return t.build(n)}))}}]),t}();function gt(t){return d(t)+""}function pt(t){var n=arguments.length>1&&void 0!==arguments[1]?arguments[1]:" ";return t&&t.length?t.map(gt).join(n):""}function dt(t){return t?null==t.a||t.a>=1?function(t){if(!t)return"transparent";var n=function(t){return parseInt(t).toString(16).padStart(2,"0")};return function(t){for(var n=[],e="#"===t[0]?n.push("#"):0;e<t.length;e+=2){if(t[e]!==t[e+1])return t;n.push(t[e])}return n.join("")}("#"+n(t.r)+n(t.g)+n(t.b)+(null==t.a||t.a>=1?"":n(255*t.a)))}(t):"rgba("+t.r+","+t.g+","+t.b+","+t.a+")":"transparent"}function mt(t){return t?"url(#"+t+")":"none"}!function(){for(var t=0,n=["ms","moz","webkit","o"],e=0;e<n.length&&!window.requestAnimationFrame;++e)window.requestAnimationFrame=window[n[e]+"RequestAnimationFrame"],window.cancelAnimationFrame=window[n[e]+"CancelAnimationFrame"]||window[n[e]+"CancelRequestAnimationFrame"];window.requestAnimationFrame||(window.requestAnimationFrame=function(n){var e=Date.now(),r=Math.max(0,16-(e-t)),i=window.setTimeout((function(){n(e+r)}),r);return t=e+r,i},window.cancelAnimationFrame=window.clearTimeout)}();var bt={f:null,i:function(t,n,e){return 0===t?n:1===t?e:{x:L(t,n.x,e.x),y:L(t,n.y,e.y)}},u:function(t,n){return function(e){var r=n(e);t.setAttribute("rx",gt(r.x)),t.setAttribute("ry",gt(r.y))}}},wt={f:null,i:function(t,n,e){return 0===t?n:1===t?e:{width:L(t,n.width,e.width),height:L(t,n.height,e.height)}},u:function(t,n){return function(e){var r=n(e);t.setAttribute("width",gt(r.width)),t.setAttribute("height",gt(r.height))}}};Object.freeze({M:2,L:2,Z:0,H:1,V:1,C:6,Q:4,T:2,S:4,A:7});var xt={},_t=null;function At(t){var n=function(){if(_t)return _t;if("object"!==("undefined"==typeof document?"undefined":e(document))||!document.createElementNS)return{};var t=document.createElementNS("http://www.w3.org/2000/svg","svg");return t&&t.style?(t.style.position="absolute",t.style.opacity="0.01",t.style.zIndex="-9999",t.style.left="-9999px",t.style.width="1px",t.style.height="1px",_t={svg:t}):{}}().svg;if(!n)return function(t){return null};var r=document.createElementNS(n.namespaceURI,"path");r.setAttributeNS(null,"d",t),r.setAttributeNS(null,"fill","none"),r.setAttributeNS(null,"stroke","none"),n.appendChild(r);var i=r.getTotalLength();return function(t){var n=r.getPointAtLength(i*t);return{x:n.x,y:n.y}}}function kt(t){return xt[t]?xt[t]:xt[t]=At(t)}function St(t,n,e,r){if(!t||!r)return!1;var i=["M",t.x,t.y];if(n&&e&&(i.push("C"),i.push(n.x),i.push(n.y),i.push(e.x),i.push(e.y)),n?!e:e){var u=n||e;i.push("Q"),i.push(u.x),i.push(u.y)}return n||e||i.push("L"),i.push(r.x),i.push(r.y),i.join(" ")}function Ot(t,n,e,r){var i=arguments.length>4&&void 0!==arguments[4]?arguments[4]:1,u=St(t,n,e,r),o=kt(u);try{return o(i)}catch(t){return null}}function jt(t,n,e){return t+(n-t)*e}function Mt(t,n,e){var r=arguments.length>3&&void 0!==arguments[3]&&arguments[3],i={x:jt(t.x,n.x,e),y:jt(t.y,n.y,e)};return r&&(i.a=Et(t,n)),i}function Et(t,n){return Math.atan2(n.y-t.y,n.x-t.x)}function Pt(t,n,e,r){var i=1-r;return i*i*t+2*i*r*n+r*r*e}function It(t,n,e,r){return 2*(1-r)*(n-t)+2*r*(e-n)}function Rt(t,n,e,r){var i=arguments.length>4&&void 0!==arguments[4]&&arguments[4],u=Ot(t,n,null,e,r);return u||(u={x:Pt(t.x,n.x,e.x,r),y:Pt(t.y,n.y,e.y,r)}),i&&(u.a=Ft(t,n,e,r)),u}function Ft(t,n,e,r){return Math.atan2(It(t.y,n.y,e.y,r),It(t.x,n.x,e.x,r))}function Nt(t,n,e,r,i){var u=i*i;return i*u*(r-t+3*(n-e))+3*u*(t+e-2*n)+3*i*(n-t)+t}function Tt(t,n,e,r,i){var u=1-i;return 3*(u*u*(n-t)+2*u*i*(e-n)+i*i*(r-e))}function qt(t,n,e,r,i){var u=arguments.length>5&&void 0!==arguments[5]&&arguments[5],o=Ot(t,n,e,r,i);return o||(o={x:Nt(t.x,n.x,e.x,r.x,i),y:Nt(t.y,n.y,e.y,r.y,i)}),u&&(o.a=Bt(t,n,e,r,i)),o}function Bt(t,n,e,r,i){return Math.atan2(Tt(t.y,n.y,e.y,r.y,i),Tt(t.x,n.x,e.x,r.x,i))}function Dt(t,n,e){var r=arguments.length>3&&void 0!==arguments[3]&&arguments[3];if(Ct(n)){if(Vt(e))return Rt(n,e.start,e,t,r)}else if(Ct(e)){if(Gt(n))return Rt(n,n.end,e,t,r)}else{if(Gt(n))return Vt(e)?qt(n,n.end,e.start,e,t,r):Rt(n,n.end,e,t,r);if(Vt(e))return Rt(n,e.start,e,t,r)}return Mt(n,e,t,r)}function Lt(t,n,e){var r=Dt(t,n,e,!0);return r.a=x(function(t){return arguments.length>1&&void 0!==arguments[1]&&arguments[1]?t+Math.PI:t}(r.a)),r}function Ct(t){return!t.type||"corner"===t.type}function Vt(t){return null!=t.start&&!Ct(t)}function Gt(t){return null!=t.end&&!Ct(t)}var zt=new T;var Yt={f:gt,i:D},$t={f:gt,i:C};function Ut(t,n,e){return t.map((function(t){return function(t,n,e){var r=t.v;if(!r||"g"!==r.t||r.s||!r.v||!r.r)return t;var i=e.getElementById(r.r),u=i&&i.querySelectorAll("stop")||[];return r.s=r.v.map((function(t,n){var e=u[n]&&u[n].getAttribute("offset");return{c:t,o:e=d(parseInt(e)/100)}})),delete r.v,t}(t,0,e)}))}var Qt={gt:"gradientTransform",c:{x:"cx",y:"cy"},rd:"r",f:{x:"x1",y:"y1"},to:{x:"x2",y:"y2"}};function Ht(t,n,r,i,u,o,a,l){return Ut(t,0,l),n=function(t,n,e){for(var r,i,u,o=t.length-1,a={},l=0;l<=o;l++)(r=t[l]).e&&(r.e=n(r.e)),r.v&&"g"===(i=r.v).t&&i.r&&(u=e.getElementById(i.r))&&(a[i.r]={e:u,s:u.querySelectorAll("stop")});return a}(t,i,l),function(i){var u=r(i,t,Jt);if(!u)return"none";if("c"===u.t)return dt(u.v);if("g"===u.t){if(!n[u.r])return mt(u.r);var o=n[u.r];return function(t,n){for(var e=t.s,r=e.length;r<n.length;r++){var i=e[e.length-1].cloneNode();i.id=Wt(i.id),t.e.appendChild(i),e=t.s=t.e.querySelectorAll("stop")}for(var u=0,o=e.length,a=n.length-1;u<o;u++)e[u].setAttribute("stop-color",dt(n[Math.min(u,a)].c)),e[u].setAttribute("offset",n[Math.min(u,a)].o)}(o,u.s),Object.keys(Qt).forEach((function(t){if(void 0!==u[t])if("object"!==e(Qt[t])){var n,r="gt"===t?(n=u[t],Array.isArray(n)?"matrix("+n.join(" ")+")":""):u[t],i=Qt[t];o.e.setAttribute(i,r)}else Object.keys(Qt[t]).forEach((function(n){if(void 0!==u[t][n]){var e=u[t][n],r=Qt[t][n];o.e.setAttribute(r,e)}}))})),mt(u.r)}return"none"}}function Jt(t,e,r){if(0===t)return e;if(1===t)return r;if(e&&r){var i=e.t;if(i===r.t)switch(e.t){case"c":return{t:i,v:z(t,e.v,r.v)};case"g":if(e.r===r.r){var u={t:i,s:Zt(t,e.s,r.s),r:e.r};return e.gt&&r.gt&&(u.gt=function(t,n,e){var r=n.length;if(r!==e.length)return B(t,n,e);for(var i=new Array(r),u=0;u<r;u++)i[u]=D(t,n[u],e[u]);return i}(t,e.gt,r.gt)),e.c?(u.c=V(t,e.c,r.c),u.rd=L(t,e.rd,r.rd)):e.f&&(u.f=V(t,e.f,r.f),u.to=V(t,e.to,r.to)),u}}if("c"===e.t&&"g"===r.t||"c"===r.t&&"g"===e.t){var o="c"===e.t?e:r,a="g"===e.t?n({},e):n({},r),l=a.s.map((function(t){return{c:o.v,o:t.o}}));return a.s="c"===e.t?Zt(t,l,a.s):Zt(t,a.s,l),a}}return B(t,e,r)}function Zt(t,n,e){if(n.length===e.length)return n.map((function(n,r){return Kt(t,n,e[r])}));for(var r=Math.max(n.length,e.length),i=[],u=0;u<r;u++){var o=Kt(t,n[Math.min(u,n.length-1)],e[Math.min(u,e.length-1)]);i.push(o)}return i}function Kt(t,n,e){return{o:C(t,n.o,e.o||0),c:z(t,n.c,e.c||{})}}function Wt(t){return t.replace(/-fill-([0-9]+)$/,(function(t,n){return"-fill-"+(+n+1)}))}var Xt={fill:Ht,"fill-opacity":$t,stroke:Ht,"stroke-opacity":$t,"stroke-width":Yt,"stroke-dashoffset":{f:gt,i:D},"stroke-dasharray":{f:function(t){var n=arguments.length>1&&void 0!==arguments[1]?arguments[1]:" ";return t&&t.length>0&&(t=t.map((function(t){return d(t,4)}))),pt(t,n)},i:function(t,n,e){var r,i,u,o=n.length,a=e.length;if(o!==a)if(0===o)n=Y(o=a,0);else if(0===a)a=o,e=Y(o,0);else{var l=(u=(r=o)*(i=a)/function(t,n){for(var e;n;)e=n,n=t%n,t=e;return t||1}(r,i))<0?-u:u;n=$(n,Math.floor(l/o)),e=$(e,Math.floor(l/a)),o=a=l}for(var s=[],f=0;f<o;f++)s.push(d(L(t,n[f],e[f])));return s}},opacity:$t,transform:function(t,n,r,i){if(!(t=function(t,n){if(!t||"object"!==e(t))return null;var r=!1;for(var i in t)t.hasOwnProperty(i)&&(t[i]&&t[i].length?(t[i].forEach((function(t){t.e&&(t.e=n(t.e))})),r=!0):delete t[i]);return r?t:null}(t,i)))return null;var u=function(e,i,u){var o=arguments.length>3&&void 0!==arguments[3]?arguments[3]:null;return t[e]?r(i,t[e],u):n&&n[e]?n[e]:o};return n&&n.a&&t.o?function(n){var e=r(n,t.o,Lt);return zt.recomposeSelf(e,u("r",n,D,0)+e.a,u("k",n,V),u("s",n,V),u("t",n,V)).toString()}:function(t){return zt.recomposeSelf(u("o",t,Dt,null),u("r",t,D,0),u("k",t,V),u("s",t,V),u("t",t,V)).toString()}},r:Yt,"#size":wt,"#radius":bt,_:function(t,n){if(Array.isArray(t))for(var e=0;e<t.length;e++)this[t[e]]=n;else this[t]=n}},tn=function(t){!function(t,n){if("function"!=typeof n&&null!==n)throw new TypeError("Super expression must either be null or a function");t.prototype=Object.create(n&&n.prototype,{constructor:{value:t,writable:!0,configurable:!0}}),n&&l(t,n)}(o,t);var n,e,i=(n=o,e=s(),function(){var t,r=a(n);if(e){var i=a(this).constructor;t=Reflect.construct(r,arguments,i)}else t=r.apply(this,arguments);return c(this,t)});function o(){return r(this,o),i.apply(this,arguments)}return u(o,null,[{key:"build",value:function(t){var n=h(a(o),"build",this).call(this,t,Xt);if(!n)return null;n.el,n.options,function(t,n,e){t.play()}(n.player)}}]),o}(yt);return tn.init(),tn}));
(function(s,i,o,w,d,a,b){w[o]=w[o]||{};w[o][s]=w[o][s]||[];w[o][s].push(i);})('5c7f360c',{"root":"caracas_animated","version":"2022-05-04","animations":[{"elements":{"caracas_animated-u-caracas2":{"transform":{"data":{"o":{"x":582.770508,"y":131.765999,"type":"corner"},"t":{"x":-582.770508,"y":-131.765999}},"keys":{"s":[{"t":150,"v":{"x":10,"y":10}},{"t":900,"v":{"x":1,"y":1}}]}}}},"s":"MFDA1Y2Q0N2JiZGNlY2GJiYWNkTmMyYzhjN0cU3YjkzOTI4OTg5ODU3RYmJkVWMyY2JUYmViYI2NkYzJjOGM3N2I5M0II4YTg1N2JHYzJjZGJElQWNiYmFjZGMyYzhjNN2NjN2I5M1Y4YTg1NS2JiZmMyYzVjNU03YjEkzOGFBODU3YmJhYzVLjZGJlY2JSYzdiYWNkUYmU3Ylg5M2JmYmFjNFWNjYmU4NTdiY2NjOWIJlV2JlYmQ3YjkzOGEG4NTdiYmZjOWNjN2I5HMzhhODk4OWQ2"}],"options":"MKDAxMDk0M2I4YzhkN2XE4YjhkM2I1MzNiODUH4ODdhN2QzYlQ5Ng|"},'__SVGATOR_PLAYER__',window,document)
]]></script>
</svg>
